<svg width="144" height="28" viewBox="0 0 144 28" fill="none" xmlns="http://www.w3.org/2000/svg">
<rect x="0.705882" y="4.93382" width="22.5882" height="18.1324" rx="3.52941" fill="white"/>
<rect x="0.705882" y="4.93382" width="22.5882" height="18.1324" rx="3.52941" stroke="#CED2D6" stroke-width="1.41176"/>
<rect x="1.41174" y="22.3603" width="16.7206" height="12.4853" rx="2.82353" transform="rotate(-90 1.41174 22.3603)" fill="#1D1D1F"/>
<path d="M53.048 17.096H49.736V23H45.848V5.24H53.048C56.672 5.24 59.096 7.616 59.096 11.168C59.096 14.72 56.672 17.096 53.048 17.096ZM52.184 8.696H49.736V13.64H52.184C54.056 13.64 54.992 12.824 54.992 11.168C54.992 9.512 54.056 8.696 52.184 8.696ZM66.4538 23.312C62.8297 23.312 60.2377 20.672 60.2377 16.976C60.2377 13.232 62.7577 10.616 66.3817 10.616C70.1498 10.616 72.5018 13.088 72.5018 17V17.936L63.7897 17.984C64.0057 19.568 64.8937 20.312 66.5257 20.312C67.9177 20.312 68.9018 19.808 69.1658 18.944H72.5498C72.1178 21.608 69.7418 23.312 66.4538 23.312ZM66.4058 13.616C64.9417 13.616 64.1257 14.264 63.8377 15.704H68.8298C68.8298 14.432 67.8938 13.616 66.4058 13.616ZM77.5291 23H73.3291L77.3611 17.192L73.3291 11H77.6011L79.8091 14.648L81.8731 11H86.0011L82.0411 17.12L85.8571 23H81.6091L79.5451 19.544L77.5291 23ZM89.8535 9.128C88.6775 9.128 87.7415 8.192 87.7415 7.016C87.7415 5.84 88.6775 4.928 89.8535 4.928C91.0055 4.928 91.9415 5.84 91.9415 7.016C91.9415 8.192 91.0055 9.128 89.8535 9.128ZM88.0295 23V11H91.7255V23H88.0295ZM93.7702 11H95.4262V10.04C95.4262 6.464 97.2022 4.904 100.01 4.904C100.514 4.904 101.09 4.952 101.666 5.048V8.216H100.634C99.3622 8.216 99.1222 9.008 99.1222 10.04V11H103.538V4.904H107.234V23H103.538V14.072H99.1222V23H95.4262V14.072H93.7702V11ZM109.767 16.976C109.767 13.184 112.551 10.64 116.391 10.64C120.207 10.64 122.991 13.184 122.991 16.976C122.991 20.768 120.207 23.288 116.391 23.288C112.551 23.288 109.767 20.768 109.767 16.976ZM113.487 16.952C113.487 18.776 114.663 19.976 116.391 19.976C118.095 19.976 119.271 18.776 119.271 16.952C119.271 15.152 118.095 13.952 116.391 13.952C114.663 13.952 113.487 15.152 113.487 16.952ZM127.637 23L123.773 11H127.661L128.765 14.912C129.053 15.944 129.317 17.12 129.509 18.32C129.725 17.048 129.845 16.592 130.373 14.912L131.597 11H135.389L136.517 14.912C136.637 15.32 137.213 17.552 137.333 18.32C137.477 17.456 138.053 15.344 138.173 14.912L139.325 11H143.237L139.037 23H135.605L134.453 19.184C133.853 17.216 133.541 15.8 133.469 15.296C133.373 15.8 133.157 16.736 132.389 19.256L131.237 23H127.637Z" fill="#1A1D1F"/>
</svg>
