<svg width="236" height="180" viewBox="0 0 236 180" fill="none" xmlns="http://www.w3.org/2000/svg">
<g clip-path="url(#clip0_702_67)">
<path fill-rule="evenodd" clip-rule="evenodd" d="M125.25 70.5349C125.538 70.8376 125.891 71.0971 126.245 71.3558C128.032 72.8293 130.084 74.5689 132.306 75.4009C135.245 76.4749 137.56 76.1352 139.345 74.967C141.856 73.321 143.256 69.7949 143.216 66.217C143.192 62.6624 141.827 59.0653 139.194 57.1501C137.408 55.8256 134.988 55.2692 131.938 56.0736C128.476 56.9659 126.24 59.4809 124.905 62.6705C124.371 63.8883 124.052 65.1472 123.781 66.4821C122.887 65.5261 121.987 64.5596 121.077 63.5776C118.218 60.2851 115.64 56.5514 113.494 52.761C110.592 47.7883 108.623 42.5144 107.618 36.844C107.487 36.345 106.984 35.9992 106.475 36.0844C105.967 36.1704 105.628 36.6654 105.694 37.207C106.744 43.0963 108.763 48.5952 111.787 53.7581C114.068 57.6124 116.651 61.4989 119.643 64.8546C120.901 66.2331 122.141 67.583 123.436 68.873C123.168 71.8248 123.373 74.7826 123.834 77.1141C127.156 92.5582 143.955 105.463 157.173 112.922C157.626 113.189 158.188 113.041 158.454 112.577C158.719 112.112 158.538 111.536 158.085 111.269C145.299 104.045 128.929 91.665 125.73 76.7066C125.355 74.9473 125.177 72.7654 125.25 70.5349ZM125.482 68.1126C126.071 68.7393 126.723 69.319 127.44 69.8538C129.129 71.1723 130.941 72.8316 132.944 73.6144C135.155 74.4304 136.919 74.2547 138.241 73.3894C140.356 72.0043 141.325 69.123 141.266 66.2465C141.258 63.3047 140.256 60.2746 138.042 58.72C136.64 57.7035 134.792 57.3081 132.458 57.9121C129.568 58.6719 127.746 60.8066 126.69 63.4066C126.045 64.8899 125.666 66.4963 125.482 68.1126Z" fill="#494949"/>
<path fill-rule="evenodd" clip-rule="evenodd" d="M158.05 112.535C157.566 112.513 157.009 112.375 156.451 112.236C155.352 111.985 154.294 111.651 153.52 111.614C148.836 111.332 143.216 111.051 138.642 112.259C138.155 112.377 137.839 112.909 137.978 113.42C138.118 113.93 138.61 114.26 139.164 114.099C143.506 112.97 148.872 113.291 153.429 113.522C154.223 113.59 155.508 113.987 156.617 114.254C157.593 114.459 158.492 114.544 159.2 114.331C159.609 114.238 160.123 113.722 160.042 112.717C159.895 111.314 158.473 108.067 158.356 107.739C157.17 104.421 156.207 101.451 157.566 98.007C157.73 97.5312 157.472 96.981 157.041 96.7475C156.543 96.5566 155.96 96.8177 155.796 97.2941C154.267 101.207 155.161 104.653 156.539 108.418C156.674 108.628 157.536 110.561 157.921 112.041C157.939 112.216 158.033 112.362 158.05 112.535Z" fill="#494949"/>
</g>
<path d="M23.9707 14.0352C23.9642 14.3281 23.9577 14.582 23.9512 14.7969C23.9512 15.0117 23.9512 15.1908 23.9512 15.334C23.9512 16.7988 23.8796 17.7363 23.7363 18.1465C23.554 18.6803 23.2188 18.9473 22.7305 18.9473C22.4375 18.9473 22.2096 18.8496 22.0469 18.6543C21.8906 18.4655 21.8255 18.2246 21.8516 17.9316C21.2656 18.1986 20.6276 18.332 19.9375 18.332C18.1602 18.332 16.7637 17.5703 15.748 16.0469C14.8691 14.7318 14.4297 13.1335 14.4297 11.252C14.4297 9.55924 14.8301 8.04232 15.6309 6.70117C16.5814 5.12565 17.8444 4.33789 19.4199 4.33789C20.8717 4.33789 22.138 5.0931 23.2188 6.60352C22.9388 7.33268 22.6035 7.69727 22.2129 7.69727C22.1608 7.69727 21.8092 7.45312 21.1582 6.96484C20.5007 6.47656 19.9473 6.23242 19.498 6.23242C18.4759 6.23242 17.6719 6.83789 17.0859 8.04883C16.6172 9.01888 16.3828 10.0736 16.3828 11.2129C16.3828 12.5345 16.6432 13.6706 17.1641 14.6211C17.8086 15.7734 18.7428 16.3496 19.9668 16.3496C20.9303 16.3496 21.6009 15.9069 21.9785 15.0215V12.1016C21.7507 12.1016 21.4121 12.1211 20.9629 12.1602C20.5202 12.1992 20.1816 12.2188 19.9473 12.2188C19.4785 12.2188 18.9967 12.1406 18.502 11.9844C18.3132 11.6198 18.2188 11.2975 18.2188 11.0176C18.2188 10.6725 18.3945 10.4609 18.7461 10.3828C18.8503 10.3633 19.1693 10.3535 19.7031 10.3535C19.8659 10.3535 20.0677 10.3503 20.3086 10.3438C20.5495 10.3307 20.8359 10.3112 21.168 10.2852C21.5 10.2591 21.7865 10.2428 22.0273 10.2363C22.2682 10.2233 22.4701 10.2168 22.6328 10.2168C23.2513 10.2168 23.6452 10.5163 23.8145 11.1152C23.9186 11.4668 23.9707 12.0072 23.9707 12.7363V14.0352ZM30.1133 12.4336C29.8008 11.8672 29.4167 11.584 28.9609 11.584C28.4596 11.584 27.9648 11.9323 27.4766 12.6289C27.6654 12.6224 27.9779 12.6061 28.4141 12.5801C28.8568 12.5475 29.4232 12.4987 30.1133 12.4336ZM32.7402 16.252C32.7402 16.4408 32.6589 16.6458 32.4961 16.8672C32.1641 17.2969 31.6562 17.6517 30.9727 17.9316C30.3216 18.1986 29.7129 18.332 29.1465 18.332C28.0202 18.332 27.0436 17.9121 26.2168 17.0723C25.39 16.2389 24.9766 15.2591 24.9766 14.1328C24.9766 13.0195 25.3672 12.0039 26.1484 11.0859C26.9688 10.1289 27.9225 9.65039 29.0098 9.65039C29.8301 9.65039 30.582 10.0443 31.2656 10.832C31.9492 11.6133 32.291 12.4206 32.291 13.2539C32.291 13.6901 32.0241 13.9896 31.4902 14.1523C30.9043 14.3281 29.804 14.416 28.1895 14.416C27.8053 14.416 27.3952 14.4062 26.959 14.3867C27.0436 14.9336 27.291 15.4023 27.7012 15.793C28.1048 16.1771 28.5866 16.3691 29.1465 16.3691C29.5176 16.3691 30.0026 16.1966 30.6016 15.8516C31.2005 15.5065 31.5879 15.334 31.7637 15.334C31.8874 15.334 32.0078 15.36 32.125 15.4121C32.2487 15.4577 32.3529 15.5228 32.4375 15.6074C32.5286 15.6855 32.6003 15.7832 32.6523 15.9004C32.7109 16.0111 32.7402 16.1283 32.7402 16.252ZM39.7812 10.3633C39.7812 10.8776 39.4753 11.1966 38.8633 11.3203C38.5964 11.3854 38.0885 11.418 37.3398 11.418V17.8828C36.7799 18.1823 36.3633 18.332 36.0898 18.332C35.7057 18.332 35.5137 18.1204 35.5137 17.6973C35.5137 17.5475 35.5137 17.362 35.5137 17.1406C35.5137 16.9193 35.5169 16.6621 35.5234 16.3691C35.5299 16.0697 35.5332 15.5098 35.5332 14.6895C35.5397 13.8691 35.543 12.7721 35.543 11.3984C34.7422 11.3984 34.1074 11.3594 33.6387 11.2812C33.4108 10.8646 33.2969 10.5326 33.2969 10.2852C33.2969 9.77083 33.8079 9.51367 34.8301 9.51367C34.8691 9.51367 34.9212 9.51693 34.9863 9.52344C35.0579 9.52344 35.1296 9.52669 35.2012 9.5332C35.2728 9.53971 35.3379 9.54622 35.3965 9.55273C35.4616 9.55273 35.5104 9.55273 35.543 9.55273V5.99805C35.543 5.88086 35.5658 5.77018 35.6113 5.66602C35.6569 5.55534 35.7188 5.46094 35.7969 5.38281C35.8815 5.30469 35.9759 5.24284 36.0801 5.19727C36.1908 5.15169 36.3079 5.12891 36.4316 5.12891C36.5488 5.12891 36.6628 5.15169 36.7734 5.19727C36.8841 5.24284 36.9785 5.30469 37.0566 5.38281C37.1413 5.46094 37.2064 5.55534 37.252 5.66602C37.304 5.77018 37.3301 5.88086 37.3301 5.99805V9.50391C37.5384 9.4974 37.7695 9.49414 38.0234 9.49414C38.2839 9.48763 38.5638 9.48438 38.8633 9.48438C39.1172 9.48438 39.332 9.56901 39.5078 9.73828C39.6901 9.90104 39.7812 10.1094 39.7812 10.3633ZM53.0137 10.5684C53.0137 10.64 53.0007 10.7051 52.9746 10.7637C52.7923 11.278 52.4701 12.0527 52.0078 13.0879C51.7799 13.6022 51.5391 14.1296 51.2852 14.6699C51.0378 15.2038 50.7741 15.7572 50.4941 16.3301C49.9603 17.4238 49.446 18.4134 48.9512 19.2988C48.4564 20.1908 47.9811 20.9915 47.5254 21.7012H47.2617C47.0273 21.7012 46.7832 21.6458 46.5293 21.5352C46.2168 21.3984 46.0605 21.2259 46.0605 21.0176C46.0605 20.8809 46.679 19.6764 47.916 17.4043C47.6882 16.8379 47.3984 16.138 47.0469 15.3047C46.6953 14.4714 46.2819 13.498 45.8066 12.3848C45.7155 12.1764 45.6113 11.9193 45.4941 11.6133C45.377 11.3008 45.2533 10.9297 45.123 10.5C45.4941 9.95312 45.8457 9.67969 46.1777 9.67969C46.4577 9.67969 46.7311 9.95312 46.998 10.5C47.0111 10.513 47.0566 10.6204 47.1348 10.8223C47.2129 11.0176 47.3268 11.304 47.4766 11.6816C47.8151 12.4629 48.3327 13.6348 49.0293 15.1973C49.3418 14.5658 49.6185 13.9766 49.8594 13.4297C50.1068 12.8763 50.3249 12.362 50.5137 11.8867C50.5853 11.6784 50.6862 11.4245 50.8164 11.125C50.9531 10.819 51.1191 10.4707 51.3145 10.0801C51.5098 9.80664 51.7474 9.66992 52.0273 9.66992C52.151 9.66992 52.2715 9.69271 52.3887 9.73828C52.5124 9.78385 52.6198 9.84896 52.7109 9.93359C52.8021 10.0117 52.8737 10.1061 52.9258 10.2168C52.9844 10.3275 53.0137 10.4447 53.0137 10.5684ZM58.5605 13.8691C58.5605 13.3027 58.4401 12.7917 58.1992 12.3359C57.8932 11.7565 57.4863 11.4668 56.9785 11.4668C55.7806 11.4668 55.1816 12.3717 55.1816 14.1816C55.1816 15.6921 55.7578 16.4473 56.9102 16.4473C57.4701 16.4473 57.8997 16.1413 58.1992 15.5293C58.4401 15.0475 58.5605 14.4941 58.5605 13.8691ZM60.4453 13.8691C60.4453 15.0736 60.1523 16.0892 59.5664 16.916C58.9154 17.86 58.0104 18.332 56.8516 18.332C55.7578 18.332 54.8854 17.9284 54.2344 17.1211C53.6289 16.3594 53.3262 15.4251 53.3262 14.3184C53.3262 13.0944 53.6289 12.0332 54.2344 11.1348C54.9049 10.0996 55.8262 9.58203 56.998 9.58203C58.0853 9.58203 58.9512 10.0378 59.5957 10.9492C60.1621 11.75 60.4453 12.7233 60.4453 13.8691ZM68.7852 17.4531C68.7852 17.707 68.7005 17.9154 68.5312 18.0781C68.3685 18.2474 68.1602 18.332 67.9062 18.332C67.3919 18.332 67.0859 18.0651 66.9883 17.5312C66.3763 18.0651 65.7025 18.332 64.9668 18.332C62.6556 18.332 61.5 16.1543 61.5 11.7988C61.5 10.334 61.8678 9.60156 62.6035 9.60156C62.8835 9.60156 63.1178 9.68945 63.3066 9.86523C63.502 10.041 63.5996 10.2689 63.5996 10.5488C63.5996 10.8027 63.5801 11.1934 63.541 11.7207C63.502 12.2415 63.4824 12.6289 63.4824 12.8828C63.4824 15.2526 63.9837 16.4375 64.9863 16.4375C65.5007 16.4375 65.9499 16.1543 66.334 15.5879C66.666 15.0996 66.8548 14.569 66.9004 13.9961C66.9134 13.8464 66.9232 13.6087 66.9297 13.2832C66.9427 12.9577 66.9492 12.5475 66.9492 12.0527C66.9492 11.2259 67.0013 10.5749 67.1055 10.0996C67.4831 9.87826 67.8151 9.76758 68.1016 9.76758C68.5443 9.76758 68.7656 10.1549 68.7656 10.9297C68.7656 11.0143 68.7656 11.1217 68.7656 11.252C68.7656 11.3822 68.7624 11.5319 68.7559 11.7012V15.2461C68.7559 15.3698 68.7559 15.5228 68.7559 15.7051C68.7559 15.8874 68.7591 16.1022 68.7656 16.3496C68.7721 16.597 68.7754 16.8118 68.7754 16.9941C68.7819 17.1764 68.7852 17.3294 68.7852 17.4531ZM76.9492 13.4785C76.9492 13.752 76.8678 13.9733 76.7051 14.1426C76.5423 14.3118 76.3242 14.3965 76.0508 14.3965C75.5755 14.3965 75.2663 14.1523 75.123 13.6641C75.084 13.4427 75.0417 13.2214 74.9961 13C74.957 12.7721 74.9147 12.5443 74.8691 12.3164C74.7389 11.8281 74.4818 11.584 74.0977 11.584C73.5964 11.584 73.1081 11.8216 72.6328 12.2969C72.1576 12.7656 71.9199 13.2507 71.9199 13.752V17.9023C71.4772 18.1888 71.0996 18.332 70.7871 18.332C70.377 18.332 70.1719 18.0326 70.1719 17.4336C70.1719 17.3294 70.1686 17.2025 70.1621 17.0527C70.1621 16.8965 70.1589 16.7174 70.1523 16.5156C70.1458 16.3073 70.1393 15.793 70.1328 14.9727C70.1328 14.1458 70.1328 13 70.1328 11.5352C70.1328 10.3112 70.4551 9.69922 71.0996 9.69922C71.6139 9.69922 71.9102 9.96615 71.9883 10.5C72.6589 9.97917 73.3424 9.71875 74.0391 9.71875C75.0026 9.71875 75.7448 10.1191 76.2656 10.9199C76.7214 11.597 76.9492 12.4499 76.9492 13.4785ZM87.75 14.25C87.75 13.6055 87.5612 13.0163 87.1836 12.4824C86.7604 11.8835 86.2428 11.584 85.6309 11.584C85.1165 11.584 84.7161 11.8444 84.4297 12.3652C84.4557 12.9512 84.4753 13.5306 84.4883 14.1035C84.5013 14.6699 84.5078 15.2363 84.5078 15.8027C85.0547 16.2129 85.5625 16.418 86.0312 16.418C86.5391 16.418 86.959 16.1771 87.291 15.6953C87.597 15.2591 87.75 14.7773 87.75 14.25ZM89.6641 14.25C89.6641 15.3307 89.3353 16.2682 88.6777 17.0625C87.9876 17.9089 87.1055 18.332 86.0312 18.332C85.5625 18.332 85.0742 18.2279 84.5664 18.0195C84.5729 18.3841 84.5762 18.6478 84.5762 18.8105C84.5762 18.9798 84.5762 19.0482 84.5762 19.0156C84.5762 19.7969 84.5273 20.5098 84.4297 21.1543C84.1432 21.5059 83.847 21.6816 83.541 21.6816C82.9746 21.6816 82.6914 21.138 82.6914 20.0508C82.6914 19.9727 82.6914 19.875 82.6914 19.7578C82.6979 19.6406 82.7044 19.5007 82.7109 19.3379C82.7174 19.1816 82.7207 19.0449 82.7207 18.9277C82.7272 18.8105 82.7305 18.7129 82.7305 18.6348C82.7305 17.7363 82.6816 16.3919 82.584 14.6016C82.5384 13.7031 82.5026 12.9186 82.4766 12.248C82.457 11.5775 82.4473 11.0176 82.4473 10.5684C82.4473 10.3145 82.5319 10.1029 82.7012 9.93359C82.877 9.75781 83.0918 9.66992 83.3457 9.66992C83.7038 9.66992 83.9772 9.80664 84.166 10.0801C84.5957 9.8457 85.0938 9.72852 85.6602 9.72852C86.7865 9.72852 87.7467 10.207 88.541 11.1641C89.2897 12.069 89.6641 13.0977 89.6641 14.25ZM95.5723 13.8691C95.5723 13.3027 95.4518 12.7917 95.2109 12.3359C94.9049 11.7565 94.498 11.4668 93.9902 11.4668C92.7923 11.4668 92.1934 12.3717 92.1934 14.1816C92.1934 15.6921 92.7695 16.4473 93.9219 16.4473C94.4818 16.4473 94.9115 16.1413 95.2109 15.5293C95.4518 15.0475 95.5723 14.4941 95.5723 13.8691ZM97.457 13.8691C97.457 15.0736 97.1641 16.0892 96.5781 16.916C95.9271 17.86 95.0221 18.332 93.8633 18.332C92.7695 18.332 91.8971 17.9284 91.2461 17.1211C90.6406 16.3594 90.3379 15.4251 90.3379 14.3184C90.3379 13.0944 90.6406 12.0332 91.2461 11.1348C91.9167 10.0996 92.8379 9.58203 94.0098 9.58203C95.097 9.58203 95.9629 10.0378 96.6074 10.9492C97.1738 11.75 97.457 12.7233 97.457 13.8691ZM105.445 13.4785C105.445 13.752 105.364 13.9733 105.201 14.1426C105.038 14.3118 104.82 14.3965 104.547 14.3965C104.072 14.3965 103.762 14.1523 103.619 13.6641C103.58 13.4427 103.538 13.2214 103.492 13C103.453 12.7721 103.411 12.5443 103.365 12.3164C103.235 11.8281 102.978 11.584 102.594 11.584C102.092 11.584 101.604 11.8216 101.129 12.2969C100.654 12.7656 100.416 13.2507 100.416 13.752V17.9023C99.9733 18.1888 99.5957 18.332 99.2832 18.332C98.873 18.332 98.668 18.0326 98.668 17.4336C98.668 17.3294 98.6647 17.2025 98.6582 17.0527C98.6582 16.8965 98.6549 16.7174 98.6484 16.5156C98.6419 16.3073 98.6354 15.793 98.6289 14.9727C98.6289 14.1458 98.6289 13 98.6289 11.5352C98.6289 10.3112 98.9512 9.69922 99.5957 9.69922C100.11 9.69922 100.406 9.96615 100.484 10.5C101.155 9.97917 101.839 9.71875 102.535 9.71875C103.499 9.71875 104.241 10.1191 104.762 10.9199C105.217 11.597 105.445 12.4499 105.445 13.4785ZM112.184 10.3633C112.184 10.8776 111.878 11.1966 111.266 11.3203C110.999 11.3854 110.491 11.418 109.742 11.418V17.8828C109.182 18.1823 108.766 18.332 108.492 18.332C108.108 18.332 107.916 18.1204 107.916 17.6973C107.916 17.5475 107.916 17.362 107.916 17.1406C107.916 16.9193 107.919 16.6621 107.926 16.3691C107.932 16.0697 107.936 15.5098 107.936 14.6895C107.942 13.8691 107.945 12.7721 107.945 11.3984C107.145 11.3984 106.51 11.3594 106.041 11.2812C105.813 10.8646 105.699 10.5326 105.699 10.2852C105.699 9.77083 106.21 9.51367 107.232 9.51367C107.271 9.51367 107.324 9.51693 107.389 9.52344C107.46 9.52344 107.532 9.52669 107.604 9.5332C107.675 9.53971 107.74 9.54622 107.799 9.55273C107.864 9.55273 107.913 9.55273 107.945 9.55273V5.99805C107.945 5.88086 107.968 5.77018 108.014 5.66602C108.059 5.55534 108.121 5.46094 108.199 5.38281C108.284 5.30469 108.378 5.24284 108.482 5.19727C108.593 5.15169 108.71 5.12891 108.834 5.12891C108.951 5.12891 109.065 5.15169 109.176 5.19727C109.286 5.24284 109.381 5.30469 109.459 5.38281C109.544 5.46094 109.609 5.55534 109.654 5.66602C109.706 5.77018 109.732 5.88086 109.732 5.99805V9.50391C109.941 9.4974 110.172 9.49414 110.426 9.49414C110.686 9.48763 110.966 9.48438 111.266 9.48438C111.52 9.48438 111.734 9.56901 111.91 9.73828C112.092 9.90104 112.184 10.1094 112.184 10.3633ZM119.918 7.22852C119.918 7.97721 119.596 8.35156 118.951 8.35156C118.548 8.35156 118.274 8.17253 118.131 7.81445C118.092 7.64518 118.053 7.47917 118.014 7.31641C117.981 7.15365 117.949 6.98763 117.916 6.81836C117.818 6.46029 117.636 6.28125 117.369 6.28125C116.712 6.28125 116.227 6.94206 115.914 8.26367C115.719 9.12305 115.621 10.028 115.621 10.9785C115.953 10.9655 116.275 10.9557 116.588 10.9492C116.907 10.9362 117.223 10.9297 117.535 10.9297C118.29 10.9297 118.668 11.2324 118.668 11.8379C118.668 12.4889 118.069 12.8145 116.871 12.8145C116.799 12.8145 116.712 12.8145 116.607 12.8145C116.51 12.8079 116.389 12.8014 116.246 12.7949C115.973 12.7754 115.768 12.7656 115.631 12.7656C115.768 13.8919 115.924 15.5749 116.1 17.8145C115.605 18.1595 115.204 18.332 114.898 18.332C114.423 18.332 114.186 17.8372 114.186 16.8477C114.153 16.6719 114.124 16.4049 114.098 16.0469C114.046 15.6823 113.987 15.2331 113.922 14.6992C113.863 14.1654 113.801 13.5371 113.736 12.8145L113.072 12.834C112.76 12.3978 112.604 12.043 112.604 11.7695C112.604 11.3203 112.965 11.0957 113.688 11.0957C113.701 9.40951 113.889 8.07812 114.254 7.10156C114.924 5.25911 115.934 4.33789 117.281 4.33789C118.069 4.33789 118.704 4.62109 119.186 5.1875C119.674 5.75391 119.918 6.43424 119.918 7.22852ZM124.889 13.8691C124.889 13.3027 124.768 12.7917 124.527 12.3359C124.221 11.7565 123.814 11.4668 123.307 11.4668C122.109 11.4668 121.51 12.3717 121.51 14.1816C121.51 15.6921 122.086 16.4473 123.238 16.4473C123.798 16.4473 124.228 16.1413 124.527 15.5293C124.768 15.0475 124.889 14.4941 124.889 13.8691ZM126.773 13.8691C126.773 15.0736 126.48 16.0892 125.895 16.916C125.243 17.86 124.339 18.332 123.18 18.332C122.086 18.332 121.214 17.9284 120.562 17.1211C119.957 16.3594 119.654 15.4251 119.654 14.3184C119.654 13.0944 119.957 12.0332 120.562 11.1348C121.233 10.0996 122.154 9.58203 123.326 9.58203C124.413 9.58203 125.279 10.0378 125.924 10.9492C126.49 11.75 126.773 12.7233 126.773 13.8691ZM129.918 15.002C129.918 15.5163 129.905 16.0143 129.879 16.4961C129.853 16.9714 129.814 17.4336 129.762 17.8828C129.358 18.1823 129.003 18.332 128.697 18.332C128.242 18.332 128.014 17.9154 128.014 17.082V16.4863C128.02 16.3431 128.023 16.2227 128.023 16.125C128.03 16.0208 128.033 15.9362 128.033 15.8711C128.033 14.7122 128.004 12.974 127.945 10.6562C127.919 9.48438 127.9 8.46875 127.887 7.60938C127.874 6.74349 127.867 6.01758 127.867 5.43164C127.867 4.70247 128.167 4.33789 128.766 4.33789C129.423 4.33789 129.752 4.88151 129.752 5.96875C129.752 6.03385 129.749 6.10872 129.742 6.19336C129.742 6.27799 129.739 6.37565 129.732 6.48633C129.726 6.59049 129.719 6.67839 129.713 6.75C129.713 6.82161 129.713 6.87695 129.713 6.91602C129.713 7.36523 129.719 7.92513 129.732 8.5957C129.752 9.26628 129.778 10.054 129.811 10.959C129.843 11.8639 129.869 12.6517 129.889 13.3223C129.908 13.9928 129.918 14.5527 129.918 15.002ZM133.141 10.7148C133.219 11.1641 133.202 11.7695 133.092 12.5312C133.079 12.9805 133.066 13.3548 133.053 13.6543C133.04 13.9538 133.03 14.1816 133.023 14.3379C133.01 14.9238 133.001 15.373 132.994 15.6855C132.988 15.9915 132.981 16.1641 132.975 16.2031C132.962 16.5612 132.939 16.8932 132.906 17.1992C132.88 17.5052 132.841 17.7949 132.789 18.0684C132.398 18.2441 132.089 18.332 131.861 18.332C131.38 18.332 131.139 18.0423 131.139 17.4629V15.8125C131.197 15.0443 131.227 13.7682 131.227 11.9844C131.227 10.5521 131.581 9.83594 132.291 9.83594C132.857 9.83594 133.141 10.1289 133.141 10.7148ZM133.258 7.86328C133.258 8.13672 133.163 8.38737 132.975 8.61523C132.786 8.83008 132.551 8.9375 132.271 8.9375C131.985 8.9375 131.731 8.83008 131.51 8.61523C131.295 8.39388 131.188 8.14323 131.188 7.86328C131.188 7.72656 131.21 7.59635 131.256 7.47266C131.308 7.34245 131.376 7.23177 131.461 7.14062C131.546 7.04297 131.646 6.96484 131.764 6.90625C131.881 6.84766 132.008 6.81836 132.145 6.81836C132.294 6.81836 132.434 6.8444 132.564 6.89648C132.701 6.94857 132.822 7.02344 132.926 7.12109C133.03 7.21224 133.111 7.32292 133.17 7.45312C133.229 7.57682 133.258 7.71354 133.258 7.86328ZM139.615 13.8691C139.615 13.3027 139.495 12.7917 139.254 12.3359C138.948 11.7565 138.541 11.4668 138.033 11.4668C136.835 11.4668 136.236 12.3717 136.236 14.1816C136.236 15.6921 136.812 16.4473 137.965 16.4473C138.525 16.4473 138.954 16.1413 139.254 15.5293C139.495 15.0475 139.615 14.4941 139.615 13.8691ZM141.5 13.8691C141.5 15.0736 141.207 16.0892 140.621 16.916C139.97 17.86 139.065 18.332 137.906 18.332C136.812 18.332 135.94 17.9284 135.289 17.1211C134.684 16.3594 134.381 15.4251 134.381 14.3184C134.381 13.0944 134.684 12.0332 135.289 11.1348C135.96 10.0996 136.881 9.58203 138.053 9.58203C139.14 9.58203 140.006 10.0378 140.65 10.9492C141.217 11.75 141.5 12.7233 141.5 13.8691ZM149.371 10.7148C149.449 11.1641 149.433 11.7695 149.322 12.5312C149.309 12.9805 149.296 13.3548 149.283 13.6543C149.27 13.9538 149.26 14.1816 149.254 14.3379C149.241 14.9238 149.231 15.373 149.225 15.6855C149.218 15.9915 149.212 16.1641 149.205 16.2031C149.192 16.5612 149.169 16.8932 149.137 17.1992C149.111 17.5052 149.072 17.7949 149.02 18.0684C148.629 18.2441 148.32 18.332 148.092 18.332C147.61 18.332 147.369 18.0423 147.369 17.4629V15.8125C147.428 15.0443 147.457 13.7682 147.457 11.9844C147.457 10.5521 147.812 9.83594 148.521 9.83594C149.088 9.83594 149.371 10.1289 149.371 10.7148ZM149.488 7.86328C149.488 8.13672 149.394 8.38737 149.205 8.61523C149.016 8.83008 148.782 8.9375 148.502 8.9375C148.215 8.9375 147.962 8.83008 147.74 8.61523C147.525 8.39388 147.418 8.14323 147.418 7.86328C147.418 7.72656 147.441 7.59635 147.486 7.47266C147.538 7.34245 147.607 7.23177 147.691 7.14062C147.776 7.04297 147.877 6.96484 147.994 6.90625C148.111 6.84766 148.238 6.81836 148.375 6.81836C148.525 6.81836 148.665 6.8444 148.795 6.89648C148.932 6.94857 149.052 7.02344 149.156 7.12109C149.26 7.21224 149.342 7.32292 149.4 7.45312C149.459 7.57682 149.488 7.71354 149.488 7.86328ZM157.584 13.8691C157.584 14.0579 157.574 14.2988 157.555 14.5918C157.542 14.8848 157.519 15.2266 157.486 15.6172C157.428 16.3919 157.398 16.9746 157.398 17.3652C157.398 17.4954 157.372 17.6191 157.32 17.7363C157.275 17.847 157.21 17.9447 157.125 18.0293C157.047 18.1139 156.949 18.1823 156.832 18.2344C156.721 18.2865 156.604 18.3125 156.48 18.3125C155.836 18.3125 155.514 17.8014 155.514 16.7793C155.514 16.61 155.52 16.4049 155.533 16.1641C155.546 15.9232 155.566 15.64 155.592 15.3145C155.618 14.9824 155.637 14.696 155.65 14.4551C155.663 14.2077 155.67 13.9993 155.67 13.8301C155.67 12.2546 155.214 11.4668 154.303 11.4668C153.587 11.4668 153.03 11.8118 152.633 12.502V16.8672C152.633 17.8438 152.317 18.332 151.686 18.332C151.087 18.332 150.787 17.9609 150.787 17.2188V13.8984C150.807 13.0781 150.816 11.8411 150.816 10.1875C151.285 9.89453 151.663 9.74805 151.949 9.74805C152.216 9.74805 152.398 9.88151 152.496 10.1484C153.069 9.79688 153.688 9.62109 154.352 9.62109C155.497 9.62109 156.347 10.0638 156.9 10.9492C157.356 11.6654 157.584 12.6387 157.584 13.8691ZM170.025 16.0176C170.025 16.7467 169.693 17.3294 169.029 17.7656C168.456 18.1432 167.783 18.332 167.008 18.332C165.536 18.332 164.316 17.7201 163.346 16.4961C163.391 16.2682 163.486 16.0208 163.629 15.7539C163.811 15.4154 164 15.2461 164.195 15.2461C164.215 15.2461 164.553 15.4609 165.211 15.8906C165.862 16.3203 166.445 16.5352 166.959 16.5352C167.604 16.5352 168.004 16.3724 168.16 16.0469C168.108 15.5977 167.691 15.1549 166.91 14.7188C166.559 14.5169 166.207 14.3184 165.855 14.123C165.504 13.9212 165.149 13.7259 164.791 13.5371C164.036 13.0163 163.658 12.4499 163.658 11.8379C163.658 11.1803 163.987 10.64 164.645 10.2168C165.224 9.83919 165.862 9.65039 166.559 9.65039C166.995 9.65039 167.496 9.77409 168.062 10.0215C168.727 10.3079 169.059 10.64 169.059 11.0176C169.059 11.265 168.964 11.4928 168.775 11.7012C168.593 11.903 168.372 12.0039 168.111 12.0039C167.929 12.0039 167.682 11.9355 167.369 11.7988C167.076 11.6556 166.835 11.584 166.646 11.584C166.165 11.584 165.829 11.6686 165.641 11.8379C165.947 12.1699 166.52 12.5345 167.359 12.9316C168.258 13.3418 168.863 13.6934 169.176 13.9863C169.742 14.4941 170.025 15.1712 170.025 16.0176ZM176.031 12.4336C175.719 11.8672 175.335 11.584 174.879 11.584C174.378 11.584 173.883 11.9323 173.395 12.6289C173.583 12.6224 173.896 12.6061 174.332 12.5801C174.775 12.5475 175.341 12.4987 176.031 12.4336ZM178.658 16.252C178.658 16.4408 178.577 16.6458 178.414 16.8672C178.082 17.2969 177.574 17.6517 176.891 17.9316C176.24 18.1986 175.631 18.332 175.064 18.332C173.938 18.332 172.962 17.9121 172.135 17.0723C171.308 16.2389 170.895 15.2591 170.895 14.1328C170.895 13.0195 171.285 12.0039 172.066 11.0859C172.887 10.1289 173.84 9.65039 174.928 9.65039C175.748 9.65039 176.5 10.0443 177.184 10.832C177.867 11.6133 178.209 12.4206 178.209 13.2539C178.209 13.6901 177.942 13.9896 177.408 14.1523C176.822 14.3281 175.722 14.416 174.107 14.416C173.723 14.416 173.313 14.4062 172.877 14.3867C172.962 14.9336 173.209 15.4023 173.619 15.793C174.023 16.1771 174.505 16.3691 175.064 16.3691C175.436 16.3691 175.921 16.1966 176.52 15.8516C177.118 15.5065 177.506 15.334 177.682 15.334C177.805 15.334 177.926 15.36 178.043 15.4121C178.167 15.4577 178.271 15.5228 178.355 15.6074C178.447 15.6855 178.518 15.7832 178.57 15.9004C178.629 16.0111 178.658 16.1283 178.658 16.252ZM186.832 15.9004C186.832 16.0501 186.78 16.2064 186.676 16.3691C186.337 16.916 185.81 17.3815 185.094 17.7656C184.384 18.1432 183.694 18.332 183.023 18.332C182.001 18.332 181.152 17.9447 180.475 17.1699C179.83 16.4408 179.508 15.5521 179.508 14.5039C179.508 13.5599 179.781 12.681 180.328 11.8672C180.888 11.0404 181.598 10.4284 182.457 10.0312C182.984 9.79036 183.492 9.66992 183.98 9.66992C184.573 9.66992 185.09 9.88151 185.533 10.3047C185.982 10.7344 186.259 11.2454 186.363 11.8379C185.999 12.3783 185.654 12.6484 185.328 12.6484C185.12 12.6484 184.898 12.4727 184.664 12.1211C184.43 11.763 184.212 11.584 184.01 11.584C183.437 11.584 182.874 11.8867 182.32 12.4922C181.767 13.0911 181.49 13.6836 181.49 14.2695C181.49 15.6562 182.001 16.3496 183.023 16.3496C183.434 16.3496 183.964 16.1087 184.615 15.627C185.266 15.1452 185.676 14.9043 185.846 14.9043C186.113 14.9043 186.344 15.0052 186.539 15.207C186.734 15.4023 186.832 15.6335 186.832 15.9004ZM192.955 13.8691C192.955 13.3027 192.835 12.7917 192.594 12.3359C192.288 11.7565 191.881 11.4668 191.373 11.4668C190.175 11.4668 189.576 12.3717 189.576 14.1816C189.576 15.6921 190.152 16.4473 191.305 16.4473C191.865 16.4473 192.294 16.1413 192.594 15.5293C192.835 15.0475 192.955 14.4941 192.955 13.8691ZM194.84 13.8691C194.84 15.0736 194.547 16.0892 193.961 16.916C193.31 17.86 192.405 18.332 191.246 18.332C190.152 18.332 189.28 17.9284 188.629 17.1211C188.023 16.3594 187.721 15.4251 187.721 14.3184C187.721 13.0944 188.023 12.0332 188.629 11.1348C189.299 10.0996 190.221 9.58203 191.393 9.58203C192.48 9.58203 193.346 10.0378 193.99 10.9492C194.557 11.75 194.84 12.7233 194.84 13.8691ZM202.799 13.8691C202.799 14.0579 202.789 14.2988 202.77 14.5918C202.757 14.8848 202.734 15.2266 202.701 15.6172C202.643 16.3919 202.613 16.9746 202.613 17.3652C202.613 17.4954 202.587 17.6191 202.535 17.7363C202.49 17.847 202.424 17.9447 202.34 18.0293C202.262 18.1139 202.164 18.1823 202.047 18.2344C201.936 18.2865 201.819 18.3125 201.695 18.3125C201.051 18.3125 200.729 17.8014 200.729 16.7793C200.729 16.61 200.735 16.4049 200.748 16.1641C200.761 15.9232 200.781 15.64 200.807 15.3145C200.833 14.9824 200.852 14.696 200.865 14.4551C200.878 14.2077 200.885 13.9993 200.885 13.8301C200.885 12.2546 200.429 11.4668 199.518 11.4668C198.801 11.4668 198.245 11.8118 197.848 12.502V16.8672C197.848 17.8438 197.532 18.332 196.9 18.332C196.301 18.332 196.002 17.9609 196.002 17.2188V13.8984C196.021 13.0781 196.031 11.8411 196.031 10.1875C196.5 9.89453 196.878 9.74805 197.164 9.74805C197.431 9.74805 197.613 9.88151 197.711 10.1484C198.284 9.79688 198.902 9.62109 199.566 9.62109C200.712 9.62109 201.562 10.0638 202.115 10.9492C202.571 11.6654 202.799 12.6387 202.799 13.8691ZM208.961 15.7637C208.928 15.3405 208.902 14.8327 208.883 14.2402C208.87 13.6478 208.863 12.9674 208.863 12.1992C208.401 11.7891 207.952 11.584 207.516 11.584C206.956 11.584 206.471 11.8737 206.061 12.4531C205.683 12.9674 205.494 13.5176 205.494 14.1035C205.494 14.722 205.65 15.2493 205.963 15.6855C206.308 16.1868 206.767 16.4375 207.34 16.4375C207.978 16.4375 208.518 16.2129 208.961 15.7637ZM210.875 17.6973C210.439 18.0423 210.068 18.2148 209.762 18.2148C209.54 18.2148 209.368 18.0781 209.244 17.8047C208.645 18.1562 208.007 18.332 207.33 18.332C206.23 18.332 205.318 17.9056 204.596 17.0527C203.893 16.2454 203.541 15.2819 203.541 14.1621C203.541 13.0163 203.915 11.9909 204.664 11.0859C205.452 10.1289 206.406 9.65039 207.525 9.65039C207.962 9.65039 208.391 9.73828 208.814 9.91406V8.09766C208.814 7.77865 208.795 7.30013 208.756 6.66211C208.743 6.33659 208.73 6.05664 208.717 5.82227C208.71 5.58138 208.707 5.37956 208.707 5.2168C208.707 4.63086 208.997 4.33789 209.576 4.33789C210.038 4.33789 210.344 4.5918 210.494 5.09961C210.559 5.32096 210.592 5.76693 210.592 6.4375C210.605 7.38151 210.615 8.31901 210.621 9.25C210.628 10.181 210.631 11.1185 210.631 12.0625C210.644 13.1953 210.67 14.2272 210.709 15.1582C210.748 16.0892 210.803 16.9355 210.875 17.6973ZM218.6 16.0176C218.6 16.7467 218.268 17.3294 217.604 17.7656C217.031 18.1432 216.357 18.332 215.582 18.332C214.111 18.332 212.89 17.7201 211.92 16.4961C211.965 16.2682 212.06 16.0208 212.203 15.7539C212.385 15.4154 212.574 15.2461 212.77 15.2461C212.789 15.2461 213.128 15.4609 213.785 15.8906C214.436 16.3203 215.019 16.5352 215.533 16.5352C216.178 16.5352 216.578 16.3724 216.734 16.0469C216.682 15.5977 216.266 15.1549 215.484 14.7188C215.133 14.5169 214.781 14.3184 214.43 14.123C214.078 13.9212 213.723 13.7259 213.365 13.5371C212.61 13.0163 212.232 12.4499 212.232 11.8379C212.232 11.1803 212.561 10.64 213.219 10.2168C213.798 9.83919 214.436 9.65039 215.133 9.65039C215.569 9.65039 216.07 9.77409 216.637 10.0215C217.301 10.3079 217.633 10.64 217.633 11.0176C217.633 11.265 217.538 11.4928 217.35 11.7012C217.167 11.903 216.946 12.0039 216.686 12.0039C216.503 12.0039 216.256 11.9355 215.943 11.7988C215.65 11.6556 215.41 11.584 215.221 11.584C214.739 11.584 214.404 11.6686 214.215 11.8379C214.521 12.1699 215.094 12.5345 215.934 12.9316C216.832 13.3418 217.438 13.6934 217.75 13.9863C218.316 14.4941 218.6 15.1712 218.6 16.0176Z" fill="#494949"/>
<defs>
<clipPath id="clip0_702_67">
<rect width="94.6501" height="94.6501" fill="white" transform="translate(197.748 89.7109) rotate(147.369)"/>
</clipPath>
</defs>
</svg>
