
<svg xmlns="http://www.w3.org/2000/svg" width="479" height="335" viewBox="0 0 479 335" fill="none"><rect x="0.5" y="1.28125" width="478" height="333" stroke="black" stroke-opacity="0.1"></rect><rect x="47" y="39.7812" width="385" height="256.601" rx="9.6451" fill="white"></rect><rect x="47.25" y="40.0312" width="384.5" height="256.101" rx="9.3951" stroke="black" stroke-opacity="0.05" stroke-width="0.5"></rect><path d="M70.5667 72.2864V63.5181H71.6284V71.3445H75.7043V72.2864H70.5667ZM79.883 72.4234C79.2893 72.4234 78.7684 72.2821 78.3203 71.9995C77.875 71.717 77.5268 71.3216 77.2756 70.8136C77.0273 70.3055 76.9031 69.7118 76.9031 69.0325C76.9031 68.3475 77.0273 67.7495 77.2756 67.2386C77.5268 66.7277 77.875 66.331 78.3203 66.0484C78.7684 65.7658 79.2893 65.6245 79.883 65.6245C80.4766 65.6245 80.9961 65.7658 81.4414 66.0484C81.8895 66.331 82.2377 66.7277 82.486 67.2386C82.7372 67.7495 82.8628 68.3475 82.8628 69.0325C82.8628 69.7118 82.7372 70.3055 82.486 70.8136C82.2377 71.3216 81.8895 71.717 81.4414 71.9995C80.9961 72.2821 80.4766 72.4234 79.883 72.4234ZM79.883 71.5157C80.3339 71.5157 80.705 71.4001 80.9961 71.1689C81.2872 70.9377 81.5027 70.6338 81.6426 70.257C81.7825 69.8802 81.8524 69.4721 81.8524 69.0325C81.8524 68.593 81.7825 68.1834 81.6426 67.8038C81.5027 67.4242 81.2872 67.1173 80.9961 66.8833C80.705 66.6492 80.3339 66.5322 79.883 66.5322C79.432 66.5322 79.0609 66.6492 78.7698 66.8833C78.4787 67.1173 78.2632 67.4242 78.1233 67.8038C77.9834 68.1834 77.9135 68.593 77.9135 69.0325C77.9135 69.4721 77.9834 69.8802 78.1233 70.257C78.2632 70.6338 78.4787 70.9377 78.7698 71.1689C79.0609 71.4001 79.432 71.5157 79.883 71.5157ZM86.3404 72.4405C85.9236 72.4405 85.5454 72.362 85.2058 72.205C84.8661 72.0452 84.5964 71.8154 84.3966 71.5157C84.1968 71.2132 84.0969 70.8478 84.0969 70.4197C84.0969 70.0429 84.1711 69.7375 84.3195 69.5035C84.468 69.2666 84.6663 69.081 84.9147 68.9469C85.163 68.8127 85.437 68.7128 85.7367 68.6472C86.0392 68.5787 86.3432 68.5245 86.6486 68.4845C87.0482 68.4331 87.3722 68.3946 87.6205 68.3689C87.8717 68.3404 88.0543 68.2933 88.1685 68.2276C88.2855 68.162 88.344 68.0478 88.344 67.8851V67.8509C88.344 67.4284 88.2284 67.1002 87.9972 66.8661C87.7689 66.6321 87.4221 66.5151 86.9569 66.5151C86.4745 66.5151 86.0963 66.6207 85.8223 66.8319C85.5483 67.0431 85.3556 67.2686 85.2443 67.5084L84.2853 67.1658C84.4565 66.7662 84.6849 66.4551 84.9703 66.2325C85.2586 66.007 85.5726 65.85 85.9122 65.7615C86.2547 65.6702 86.5915 65.6245 86.9226 65.6245C87.1338 65.6245 87.3764 65.6502 87.6505 65.7016C87.9273 65.7501 88.1942 65.8515 88.4511 66.0056C88.7108 66.1597 88.9263 66.3923 89.0976 66.7035C89.2688 67.0146 89.3544 67.4313 89.3544 67.9536V72.2864H88.344V71.3958H88.2927C88.2242 71.5386 88.11 71.6913 87.9502 71.854C87.7903 72.0166 87.5777 72.1551 87.3122 72.2693C87.0468 72.3834 86.7228 72.4405 86.3404 72.4405ZM86.4945 71.5329C86.8941 71.5329 87.2309 71.4544 87.5049 71.2974C87.7817 71.1404 87.9901 70.9377 88.13 70.6894C88.2727 70.4411 88.344 70.1799 88.344 69.9059V68.9811C88.3012 69.0325 88.207 69.0796 88.0615 69.1224C87.9188 69.1624 87.7532 69.1981 87.5648 69.2295C87.3793 69.258 87.1981 69.2837 87.0211 69.3065C86.847 69.3265 86.7057 69.3436 86.5972 69.3579C86.3346 69.3922 86.0892 69.4478 85.8608 69.5249C85.6353 69.5991 85.4527 69.7118 85.3128 69.8631C85.1758 70.0115 85.1073 70.2142 85.1073 70.4711C85.1073 70.8221 85.2372 71.0876 85.4969 71.2674C85.7595 71.4444 86.092 71.5329 86.4945 71.5329ZM92.2091 68.3304V72.2864H91.1987V65.7102H92.1748V66.7377H92.2604C92.4146 66.4038 92.6486 66.1355 92.9626 65.9328C93.2765 65.7273 93.6819 65.6245 94.1785 65.6245C94.6238 65.6245 95.0134 65.7159 95.3473 65.8986C95.6813 66.0784 95.941 66.3524 96.1265 66.7206C96.312 67.0859 96.4048 67.5483 96.4048 68.1077V72.2864H95.3944V68.1762C95.3944 67.6596 95.2603 67.2572 94.992 66.9689C94.7237 66.6778 94.3555 66.5322 93.8874 66.5322C93.5648 66.5322 93.2765 66.6021 93.0225 66.742C92.7713 66.8818 92.573 67.0859 92.4274 67.3542C92.2818 67.6225 92.2091 67.9479 92.2091 68.3304ZM103.577 72.4405C103.16 72.4405 102.782 72.362 102.443 72.205C102.103 72.0452 101.833 71.8154 101.633 71.5157C101.434 71.2132 101.334 70.8478 101.334 70.4197C101.334 70.0429 101.408 69.7375 101.556 69.5035C101.705 69.2666 101.903 69.081 102.151 68.9469C102.4 68.8127 102.674 68.7128 102.974 68.6472C103.276 68.5787 103.58 68.5245 103.885 68.4845C104.285 68.4331 104.609 68.3946 104.857 68.3689C105.109 68.3404 105.291 68.2933 105.405 68.2276C105.522 68.162 105.581 68.0478 105.581 67.8851V67.8509C105.581 67.4284 105.465 67.1002 105.234 66.8661C105.006 66.6321 104.659 66.5151 104.194 66.5151C103.711 66.5151 103.333 66.6207 103.059 66.8319C102.785 67.0431 102.592 67.2686 102.481 67.5084L101.522 67.1658C101.693 66.7662 101.922 66.4551 102.207 66.2325C102.495 66.007 102.809 65.85 103.149 65.7615C103.492 65.6702 103.828 65.6245 104.159 65.6245C104.371 65.6245 104.613 65.6502 104.887 65.7016C105.164 65.7501 105.431 65.8515 105.688 66.0056C105.948 66.1597 106.163 66.3923 106.334 66.7035C106.506 67.0146 106.591 67.4313 106.591 67.9536V72.2864H105.581V71.3958H105.53C105.461 71.5386 105.347 71.6913 105.187 71.854C105.027 72.0166 104.815 72.1551 104.549 72.2693C104.284 72.3834 103.96 72.4405 103.577 72.4405ZM103.731 71.5329C104.131 71.5329 104.468 71.4544 104.742 71.2974C105.019 71.1404 105.227 70.9377 105.367 70.6894C105.51 70.4411 105.581 70.1799 105.581 69.9059V68.9811C105.538 69.0325 105.444 69.0796 105.298 69.1224C105.156 69.1624 104.99 69.1981 104.802 69.2295C104.616 69.258 104.435 69.2837 104.258 69.3065C104.084 69.3265 103.943 69.3436 103.834 69.3579C103.571 69.3922 103.326 69.4478 103.098 69.5249C102.872 69.5991 102.69 69.7118 102.55 69.8631C102.413 70.0115 102.344 70.2142 102.344 70.4711C102.344 70.8221 102.474 71.0876 102.734 71.2674C102.996 71.4444 103.329 71.5329 103.731 71.5329ZM108.435 72.2864V65.7102H109.412V66.7377H109.497C109.634 66.3866 109.855 66.114 110.161 65.92C110.466 65.723 110.833 65.6245 111.261 65.6245C111.695 65.6245 112.056 65.723 112.344 65.92C112.636 66.114 112.862 66.3866 113.025 66.7377H113.094C113.262 66.398 113.515 66.1283 113.851 65.9285C114.188 65.7259 114.592 65.6245 115.063 65.6245C115.651 65.6245 116.132 65.8086 116.506 66.1768C116.88 66.5422 117.067 67.1116 117.067 67.8851V72.2864H116.056V67.8851C116.056 67.3999 115.924 67.0531 115.658 66.8447C115.393 66.6364 115.08 66.5322 114.721 66.5322C114.258 66.5322 113.9 66.6721 113.646 66.9518C113.392 67.2286 113.265 67.5797 113.265 68.005V72.2864H112.237V67.7824C112.237 67.4085 112.116 67.1073 111.873 66.879C111.631 66.6478 111.318 66.5322 110.936 66.5322C110.673 66.5322 110.428 66.6021 110.199 66.742C109.974 66.8818 109.791 67.0759 109.651 67.3243C109.514 67.5697 109.446 67.8537 109.446 68.1762V72.2864H108.435ZM121.586 72.4234C120.992 72.4234 120.471 72.2821 120.023 71.9995C119.578 71.717 119.23 71.3216 118.978 70.8136C118.73 70.3055 118.606 69.7118 118.606 69.0325C118.606 68.3475 118.73 67.7495 118.978 67.2386C119.23 66.7277 119.578 66.331 120.023 66.0484C120.471 65.7658 120.992 65.6245 121.586 65.6245C122.179 65.6245 122.699 65.7658 123.144 66.0484C123.592 66.331 123.941 66.7277 124.189 67.2386C124.44 67.7495 124.566 68.3475 124.566 69.0325C124.566 69.7118 124.44 70.3055 124.189 70.8136C123.941 71.3216 123.592 71.717 123.144 71.9995C122.699 72.2821 122.179 72.4234 121.586 72.4234ZM121.586 71.5157C122.037 71.5157 122.408 71.4001 122.699 71.1689C122.99 70.9377 123.206 70.6338 123.345 70.257C123.485 69.8802 123.555 69.4721 123.555 69.0325C123.555 68.593 123.485 68.1834 123.345 67.8038C123.206 67.4242 122.99 67.1173 122.699 66.8833C122.408 66.6492 122.037 66.5322 121.586 66.5322C121.135 66.5322 120.764 66.6492 120.473 66.8833C120.181 67.1173 119.966 67.4242 119.826 67.8038C119.686 68.1834 119.616 68.593 119.616 69.0325C119.616 69.4721 119.686 69.8802 119.826 70.257C119.966 70.6338 120.181 70.9377 120.473 71.1689C120.764 71.4001 121.135 71.5157 121.586 71.5157ZM130.252 69.5977V65.7102H131.263V72.2864H130.252V71.1732H130.184C130.03 71.5072 129.79 71.7912 129.465 72.0252C129.139 72.2564 128.728 72.372 128.232 72.372C127.821 72.372 127.455 72.2821 127.136 72.1023C126.816 71.9196 126.565 71.6456 126.382 71.2803C126.199 70.9121 126.108 70.4482 126.108 69.8888V65.7102H127.118V69.8203C127.118 70.2998 127.253 70.6823 127.521 70.9677C127.792 71.2531 128.137 71.3958 128.557 71.3958C128.808 71.3958 129.064 71.3316 129.323 71.2032C129.586 71.0747 129.806 70.8778 129.983 70.6124C130.162 70.3469 130.252 70.0087 130.252 69.5977ZM134.124 68.3304V72.2864H133.113V65.7102H134.09V66.7377H134.175C134.329 66.4038 134.563 66.1355 134.877 65.9328C135.191 65.7273 135.597 65.6245 136.093 65.6245C136.538 65.6245 136.928 65.7159 137.262 65.8986C137.596 66.0784 137.856 66.3524 138.041 66.7206C138.227 67.0859 138.32 67.5483 138.32 68.1077V72.2864H137.309V68.1762C137.309 67.6596 137.175 67.2572 136.907 66.9689C136.638 66.6778 136.27 66.5322 135.802 66.5322C135.48 66.5322 135.191 66.6021 134.937 66.742C134.686 66.8818 134.488 67.0859 134.342 67.3542C134.197 67.6225 134.124 67.9479 134.124 68.3304ZM143.026 65.7102V66.5664H139.618V65.7102H143.026ZM140.611 64.1346H141.622V70.4026C141.622 70.688 141.663 70.9021 141.746 71.0448C141.831 71.1846 141.94 71.2788 142.071 71.3273C142.205 71.373 142.347 71.3958 142.495 71.3958C142.606 71.3958 142.698 71.3901 142.769 71.3787C142.84 71.3645 142.897 71.353 142.94 71.3445L143.146 72.2521C143.077 72.2778 142.982 72.3035 142.859 72.3292C142.736 72.3577 142.581 72.372 142.392 72.372C142.107 72.372 141.827 72.3106 141.553 72.1879C141.282 72.0652 141.056 71.8782 140.877 71.627C140.7 71.3759 140.611 71.059 140.611 70.6766V64.1346Z" fill="#414438" fill-opacity="0.8"></path><path d="M77.8895 114.562V88.2571H79.5747V114.562H77.8895ZM83.5615 96.1485C83.4382 95.1073 82.9382 94.2989 82.0613 93.7235C81.1845 93.1481 80.109 92.8604 78.8349 92.8604C77.9032 92.8604 77.0881 93.0111 76.3893 93.3125C75.6975 93.6139 75.1563 94.0284 74.7658 94.5558C74.3822 95.0833 74.1904 95.6827 74.1904 96.354C74.1904 96.9157 74.324 97.3987 74.5912 97.8028C74.8652 98.2001 75.2145 98.5324 75.6392 98.7995C76.064 99.0598 76.5092 99.2756 76.975 99.4469C77.4409 99.6113 77.869 99.7449 78.2595 99.8476L80.3967 100.423C80.9447 100.567 81.5544 100.766 82.2257 101.019C82.9039 101.272 83.5512 101.618 84.1678 102.057C84.7911 102.488 85.3049 103.043 85.7091 103.721C86.1132 104.4 86.3153 105.232 86.3153 106.218C86.3153 107.355 86.0173 108.383 85.4214 109.301C84.8322 110.219 83.9691 110.948 82.832 111.49C81.7017 112.031 80.3282 112.301 78.7116 112.301C77.2045 112.301 75.8996 112.058 74.7967 111.572C73.7006 111.085 72.8375 110.407 72.2073 109.537C71.5839 108.667 71.2311 107.657 71.1489 106.506H73.7794C73.8479 107.301 74.1151 107.958 74.5809 108.479C75.0536 108.993 75.6495 109.376 76.3688 109.63C77.0949 109.876 77.8758 110 78.7116 110C79.6843 110 80.5577 109.842 81.3318 109.527C82.1058 109.205 82.7189 108.76 83.1711 108.191C83.6232 107.616 83.8492 106.944 83.8492 106.177C83.8492 105.478 83.654 104.91 83.2635 104.472C82.8731 104.033 82.3593 103.677 81.7222 103.403C81.0852 103.129 80.3967 102.889 79.6569 102.684L77.0675 101.944C75.4235 101.471 74.1219 100.796 73.1629 99.9195C72.2039 99.0427 71.7244 97.8953 71.7244 96.4773C71.7244 95.2991 72.0429 94.2715 72.68 93.3947C73.3239 92.511 74.187 91.826 75.2693 91.3397C76.3585 90.8464 77.5744 90.5998 78.9171 90.5998C80.2734 90.5998 81.4791 90.843 82.534 91.3294C83.5889 91.8089 84.4246 92.4665 85.0412 93.3022C85.6645 94.138 85.9933 95.0867 86.0276 96.1485H83.5615ZM96.667 112.219C95.3106 112.219 94.1016 111.986 93.0398 111.52C91.9848 111.055 91.1457 110.407 90.5223 109.578C89.9058 108.743 89.5701 107.773 89.5153 106.67H92.1047C92.1595 107.349 92.3924 107.934 92.8034 108.428C93.2145 108.914 93.7522 109.291 94.4167 109.558C95.0811 109.825 95.8175 109.959 96.6259 109.959C97.5301 109.959 98.3316 109.801 99.0303 109.486C99.729 109.171 100.277 108.732 100.674 108.171C101.072 107.609 101.27 106.958 101.27 106.218C101.27 105.444 101.079 104.763 100.695 104.174C100.311 103.578 99.7496 103.112 99.0097 102.776C98.2699 102.44 97.3657 102.273 96.2971 102.273H94.6119V100.012H96.2971C97.1328 100.012 97.8658 99.8613 98.496 99.5599C99.133 99.2585 99.6297 98.8338 99.9859 98.2858C100.349 97.7378 100.53 97.0938 100.53 96.354C100.53 95.6416 100.373 95.0216 100.058 94.4942C99.7427 93.9667 99.2975 93.5557 98.722 93.2611C98.1535 92.9666 97.4821 92.8193 96.7081 92.8193C95.9819 92.8193 95.2969 92.9529 94.653 93.22C94.0159 93.4803 93.4953 93.8605 93.0912 94.3606C92.687 94.8538 92.4678 95.4498 92.4335 96.1485H89.9675C90.0086 95.0456 90.3408 94.0797 90.9642 93.2509C91.5875 92.4151 92.4027 91.7644 93.4097 91.2986C94.4235 90.8327 95.5367 90.5998 96.7492 90.5998C98.0507 90.5998 99.1673 90.8636 100.099 91.391C101.031 91.9116 101.746 92.6001 102.246 93.4564C102.747 94.3126 102.997 95.2374 102.997 96.2307C102.997 97.4158 102.685 98.4262 102.062 99.2619C101.445 100.098 100.606 100.676 99.5441 100.998V101.163C100.873 101.382 101.911 101.947 102.657 102.858C103.404 103.763 103.777 104.883 103.777 106.218C103.777 107.362 103.466 108.39 102.842 109.301C102.226 110.205 101.383 110.918 100.315 111.438C99.2461 111.959 98.0302 112.219 96.667 112.219ZM110.409 109.054L110.245 110.164C110.129 110.945 109.951 111.781 109.711 112.671C109.478 113.562 109.235 114.401 108.981 115.189C108.728 115.976 108.519 116.603 108.354 117.069H106.505C106.594 116.631 106.71 116.052 106.854 115.333C106.998 114.613 107.142 113.808 107.286 112.918C107.436 112.034 107.56 111.13 107.656 110.205L107.779 109.054H110.409ZM120.412 112.219C118.864 112.219 117.545 111.798 116.456 110.955C115.367 110.106 114.534 108.876 113.959 107.266C113.383 105.65 113.096 103.697 113.096 101.409C113.096 99.1352 113.383 97.1932 113.959 95.5834C114.541 93.9667 115.377 92.7337 116.466 91.8842C117.562 91.028 118.877 90.5998 120.412 90.5998C121.946 90.5998 123.258 91.028 124.347 91.8842C125.443 92.7337 126.279 93.9667 126.854 95.5834C127.437 97.1932 127.728 99.1352 127.728 101.409C127.728 103.697 127.44 105.65 126.865 107.266C126.289 108.876 125.457 110.106 124.368 110.955C123.279 111.798 121.96 112.219 120.412 112.219ZM120.412 109.959C121.946 109.959 123.138 109.219 123.988 107.739C124.837 106.259 125.262 104.15 125.262 101.409C125.262 99.5873 125.067 98.0357 124.676 96.7547C124.292 95.4738 123.738 94.4976 123.011 93.8263C122.292 93.155 121.426 92.8193 120.412 92.8193C118.891 92.8193 117.703 93.5694 116.846 95.0696C115.99 96.5629 115.562 98.6762 115.562 101.409C115.562 103.232 115.754 104.78 116.137 106.054C116.521 107.328 117.072 108.297 117.792 108.962C118.518 109.626 119.391 109.959 120.412 109.959ZM137.918 112.219C136.37 112.219 135.051 111.798 133.962 110.955C132.872 110.106 132.04 108.876 131.465 107.266C130.889 105.65 130.602 103.697 130.602 101.409C130.602 99.1352 130.889 97.1932 131.465 95.5834C132.047 93.9667 132.883 92.7337 133.972 91.8842C135.068 91.028 136.383 90.5998 137.918 90.5998C139.452 90.5998 140.764 91.028 141.853 91.8842C142.949 92.7337 143.785 93.9667 144.36 95.5834C144.943 97.1932 145.234 99.1352 145.234 101.409C145.234 103.697 144.946 105.65 144.371 107.266C143.795 108.876 142.963 110.106 141.874 110.955C140.784 111.798 139.466 112.219 137.918 112.219ZM137.918 109.959C139.452 109.959 140.644 109.219 141.493 107.739C142.343 106.259 142.768 104.15 142.768 101.409C142.768 99.5873 142.572 98.0357 142.182 96.7547C141.798 95.4738 141.243 94.4976 140.517 93.8263C139.798 93.155 138.931 92.8193 137.918 92.8193C136.397 92.8193 135.208 93.5694 134.352 95.0696C133.496 96.5629 133.068 98.6762 133.068 101.409C133.068 103.232 133.26 104.78 133.643 106.054C134.027 107.328 134.578 108.297 135.297 108.962C136.024 109.626 136.897 109.959 137.918 109.959ZM155.424 112.219C153.875 112.219 152.557 111.798 151.468 110.955C150.378 110.106 149.546 108.876 148.971 107.266C148.395 105.65 148.107 103.697 148.107 101.409C148.107 99.1352 148.395 97.1932 148.971 95.5834C149.553 93.9667 150.389 92.7337 151.478 91.8842C152.574 91.028 153.889 90.5998 155.424 90.5998C156.958 90.5998 158.27 91.028 159.359 91.8842C160.455 92.7337 161.291 93.9667 161.866 95.5834C162.448 97.1932 162.74 99.1352 162.74 101.409C162.74 103.697 162.452 105.65 161.876 107.266C161.301 108.876 160.469 110.106 159.38 110.955C158.29 111.798 156.972 112.219 155.424 112.219ZM155.424 109.959C156.958 109.959 158.15 109.219 158.999 107.739C159.849 106.259 160.273 104.15 160.273 101.409C160.273 99.5873 160.078 98.0357 159.688 96.7547C159.304 95.4738 158.749 94.4976 158.023 93.8263C157.304 93.155 156.437 92.8193 155.424 92.8193C153.903 92.8193 152.714 93.5694 151.858 95.0696C151.002 96.5629 150.574 98.6762 150.574 101.409C150.574 103.232 150.765 104.78 151.149 106.054C151.533 107.328 152.084 108.297 152.803 108.962C153.529 109.626 154.403 109.959 155.424 109.959ZM167.139 112.096C166.632 112.096 166.197 111.914 165.834 111.551C165.471 111.188 165.29 110.753 165.29 110.246C165.29 109.739 165.471 109.304 165.834 108.941C166.197 108.578 166.632 108.397 167.139 108.397C167.646 108.397 168.081 108.578 168.444 108.941C168.807 109.304 168.989 109.739 168.989 110.246C168.989 110.582 168.903 110.89 168.732 111.171C168.567 111.452 168.345 111.678 168.064 111.849C167.79 112.014 167.482 112.096 167.139 112.096ZM178.85 112.219C177.302 112.219 175.983 111.798 174.894 110.955C173.805 110.106 172.972 108.876 172.397 107.266C171.821 105.65 171.534 103.697 171.534 101.409C171.534 99.1352 171.821 97.1932 172.397 95.5834C172.979 93.9667 173.815 92.7337 174.904 91.8842C176 91.028 177.315 90.5998 178.85 90.5998C180.384 90.5998 181.696 91.028 182.785 91.8842C183.881 92.7337 184.717 93.9667 185.292 95.5834C185.875 97.1932 186.166 99.1352 186.166 101.409C186.166 103.697 185.878 105.65 185.303 107.266C184.727 108.876 183.895 110.106 182.806 110.955C181.717 111.798 180.398 112.219 178.85 112.219ZM178.85 109.959C180.384 109.959 181.576 109.219 182.426 107.739C183.275 106.259 183.7 104.15 183.7 101.409C183.7 99.5873 183.505 98.0357 183.114 96.7547C182.73 95.4738 182.176 94.4976 181.449 93.8263C180.73 93.155 179.864 92.8193 178.85 92.8193C177.329 92.8193 176.141 93.5694 175.284 95.0696C174.428 96.5629 174 98.6762 174 101.409C174 103.232 174.192 104.78 174.575 106.054C174.959 107.328 175.51 108.297 176.23 108.962C176.956 109.626 177.829 109.959 178.85 109.959ZM196.356 112.219C194.808 112.219 193.489 111.798 192.4 110.955C191.31 110.106 190.478 108.876 189.903 107.266C189.327 105.65 189.04 103.697 189.04 101.409C189.04 99.1352 189.327 97.1932 189.903 95.5834C190.485 93.9667 191.321 92.7337 192.41 91.8842C193.506 91.028 194.821 90.5998 196.356 90.5998C197.89 90.5998 199.202 91.028 200.291 91.8842C201.387 92.7337 202.223 93.9667 202.798 95.5834C203.381 97.1932 203.672 99.1352 203.672 101.409C203.672 103.697 203.384 105.65 202.809 107.266C202.233 108.876 201.401 110.106 200.312 110.955C199.222 111.798 197.904 112.219 196.356 112.219ZM196.356 109.959C197.89 109.959 199.082 109.219 199.931 107.739C200.781 106.259 201.206 104.15 201.206 101.409C201.206 99.5873 201.01 98.0357 200.62 96.7547C200.236 95.4738 199.681 94.4976 198.955 93.8263C198.236 93.155 197.369 92.8193 196.356 92.8193C194.835 92.8193 193.646 93.5694 192.79 95.0696C191.934 96.5629 191.506 98.6762 191.506 101.409C191.506 103.232 191.698 104.78 192.081 106.054C192.465 107.328 193.016 108.297 193.735 108.962C194.462 109.626 195.335 109.959 196.356 109.959Z" fill="#0D0E14"></path><line x1="69.5049" y1="141.236" x2="409.494" y2="141.236" stroke="black" stroke-opacity="0.1" stroke-width="0.401879"></line><path d="M70.5667 173.942V165.174H73.5294C74.2173 165.174 74.7795 165.298 75.2162 165.546C75.6558 165.792 75.9812 166.124 76.1924 166.544C76.4036 166.963 76.5092 167.431 76.5092 167.948C76.5092 168.465 76.4036 168.934 76.1924 169.357C75.984 169.779 75.6615 170.116 75.2248 170.367C74.7881 170.615 74.2287 170.739 73.5465 170.739H71.4229V169.798H73.5123C73.9832 169.798 74.3614 169.716 74.6468 169.553C74.9322 169.391 75.1392 169.171 75.2676 168.894C75.3989 168.614 75.4646 168.299 75.4646 167.948C75.4646 167.597 75.3989 167.283 75.2676 167.006C75.1392 166.729 74.9308 166.512 74.6425 166.355C74.3543 166.195 73.9718 166.116 73.4951 166.116H71.6284V173.942H70.5667ZM80.0178 174.096C79.6011 174.096 79.2229 174.018 78.8833 173.861C78.5436 173.701 78.2739 173.471 78.0741 173.171C77.8743 172.869 77.7744 172.503 77.7744 172.075C77.7744 171.698 77.8486 171.393 77.997 171.159C78.1454 170.922 78.3438 170.737 78.5921 170.602C78.8404 170.468 79.1144 170.368 79.4141 170.303C79.7167 170.234 80.0207 170.18 80.3261 170.14C80.7257 170.089 81.0496 170.05 81.298 170.024C81.5491 169.996 81.7318 169.949 81.846 169.883C81.963 169.817 82.0215 169.703 82.0215 169.541V169.506C82.0215 169.084 81.9059 168.756 81.6747 168.522C81.4464 168.288 81.0996 168.171 80.6343 168.171C80.152 168.171 79.7738 168.276 79.4998 168.487C79.2258 168.699 79.0331 168.924 78.9218 169.164L77.9628 168.821C78.134 168.422 78.3624 168.111 78.6478 167.888C78.9361 167.663 79.25 167.506 79.5897 167.417C79.9322 167.326 80.269 167.28 80.6001 167.28C80.8113 167.28 81.0539 167.306 81.3279 167.357C81.6048 167.406 81.8717 167.507 82.1285 167.661C82.3883 167.815 82.6038 168.048 82.775 168.359C82.9463 168.67 83.0319 169.087 83.0319 169.609V173.942H82.0215V173.051H81.9701C81.9016 173.194 81.7875 173.347 81.6276 173.509C81.4678 173.672 81.2551 173.811 80.9897 173.925C80.7242 174.039 80.4003 174.096 80.0178 174.096ZM80.1719 173.188C80.5715 173.188 80.9083 173.11 81.1824 172.953C81.4592 172.796 81.6676 172.593 81.8074 172.345C81.9501 172.097 82.0215 171.835 82.0215 171.561V170.637C81.9787 170.688 81.8845 170.735 81.7389 170.778C81.5962 170.818 81.4307 170.854 81.2423 170.885C81.0568 170.914 80.8755 170.939 80.6986 170.962C80.5244 170.982 80.3832 170.999 80.2747 171.013C80.0121 171.048 79.7666 171.103 79.5383 171.18C79.3128 171.255 79.1301 171.367 78.9903 171.519C78.8533 171.667 78.7848 171.87 78.7848 172.127C78.7848 172.478 78.9146 172.743 79.1744 172.923C79.437 173.1 79.7695 173.188 80.1719 173.188ZM85.2914 176.408C85.1202 176.408 84.9675 176.394 84.8333 176.365C84.6992 176.339 84.6064 176.314 84.555 176.288L84.8119 175.398C85.0574 175.46 85.2743 175.483 85.4627 175.466C85.651 175.449 85.818 175.365 85.9636 175.213C86.112 175.065 86.2476 174.824 86.3703 174.49L86.5587 173.976L84.1269 167.366H85.2229L87.0382 172.606H87.1067L88.922 167.366H90.0181L87.2266 174.901C87.101 175.241 86.9455 175.522 86.7599 175.744C86.5744 175.97 86.3589 176.137 86.1134 176.245C85.8708 176.354 85.5968 176.408 85.2914 176.408ZM91.3517 173.942V167.366H92.3279V168.393H92.4135C92.5505 168.042 92.7717 167.77 93.0771 167.575C93.3825 167.379 93.7493 167.28 94.1774 167.28C94.6113 167.28 94.9723 167.379 95.2606 167.575C95.5517 167.77 95.7787 168.042 95.9414 168.393H96.0099C96.1783 168.054 96.4309 167.784 96.7677 167.584C97.1045 167.381 97.5083 167.28 97.9793 167.28C98.5673 167.28 99.0482 167.464 99.4221 167.832C99.796 168.198 99.983 168.767 99.983 169.541V173.942H98.9726V169.541C98.9726 169.055 98.8398 168.709 98.5744 168.5C98.309 168.292 97.9964 168.188 97.6368 168.188C97.1744 168.188 96.8162 168.328 96.5622 168.607C96.3081 168.884 96.1811 169.235 96.1811 169.661V173.942H95.1536V169.438C95.1536 169.064 95.0323 168.763 94.7897 168.535C94.547 168.303 94.2345 168.188 93.852 168.188C93.5894 168.188 93.344 168.258 93.1156 168.398C92.8902 168.537 92.7075 168.731 92.5676 168.98C92.4306 169.225 92.3621 169.509 92.3621 169.832V173.942H91.3517ZM104.588 174.079C103.954 174.079 103.407 173.939 102.948 173.659C102.491 173.377 102.139 172.983 101.89 172.478C101.645 171.97 101.522 171.379 101.522 170.705C101.522 170.032 101.645 169.438 101.89 168.924C102.139 168.407 102.484 168.005 102.926 167.717C103.372 167.426 103.891 167.28 104.485 167.28C104.827 167.28 105.166 167.337 105.5 167.451C105.833 167.565 106.137 167.751 106.411 168.008C106.685 168.262 106.904 168.599 107.067 169.018C107.229 169.438 107.311 169.954 107.311 170.568V170.996H102.241V170.123H106.283C106.283 169.752 106.209 169.421 106.06 169.13C105.915 168.838 105.706 168.609 105.435 168.44C105.167 168.272 104.85 168.188 104.485 168.188C104.082 168.188 103.734 168.288 103.44 168.487C103.149 168.684 102.925 168.941 102.768 169.258C102.611 169.575 102.533 169.915 102.533 170.277V170.859C102.533 171.356 102.618 171.777 102.789 172.122C102.964 172.465 103.205 172.726 103.513 172.906C103.821 173.083 104.179 173.171 104.588 173.171C104.853 173.171 105.093 173.134 105.307 173.06C105.524 172.983 105.711 172.869 105.868 172.717C106.025 172.563 106.146 172.372 106.232 172.144L107.208 172.418C107.105 172.749 106.932 173.04 106.69 173.291C106.447 173.539 106.147 173.734 105.791 173.873C105.434 174.01 105.033 174.079 104.588 174.079ZM109.858 169.986V173.942H108.848V167.366H109.824V168.393H109.909C110.063 168.059 110.298 167.791 110.612 167.588C110.925 167.383 111.331 167.28 111.827 167.28C112.273 167.28 112.662 167.371 112.996 167.554C113.33 167.734 113.59 168.008 113.775 168.376C113.961 168.741 114.054 169.204 114.054 169.763V173.942H113.043V169.832C113.043 169.315 112.909 168.913 112.641 168.624C112.373 168.333 112.004 168.188 111.536 168.188C111.214 168.188 110.925 168.258 110.671 168.398C110.42 168.537 110.222 168.741 110.076 169.01C109.931 169.278 109.858 169.603 109.858 169.986ZM118.76 167.366V168.222H115.352V167.366H118.76ZM116.345 165.79H117.356V172.058C117.356 172.344 117.397 172.558 117.48 172.7C117.566 172.84 117.674 172.934 117.805 172.983C117.939 173.029 118.081 173.051 118.229 173.051C118.34 173.051 118.432 173.046 118.503 173.034C118.575 173.02 118.632 173.009 118.674 173L118.88 173.908C118.811 173.933 118.716 173.959 118.593 173.985C118.47 174.013 118.315 174.028 118.126 174.028C117.841 174.028 117.561 173.966 117.287 173.843C117.016 173.721 116.791 173.534 116.611 173.283C116.434 173.031 116.345 172.715 116.345 172.332V165.79ZM126.514 173.942H123.808V165.174H126.634C127.484 165.174 128.212 165.349 128.817 165.7C129.422 166.048 129.886 166.549 130.208 167.203C130.531 167.854 130.692 168.633 130.692 169.541C130.692 170.454 130.53 171.24 130.204 171.9C129.879 172.556 129.405 173.061 128.783 173.415C128.161 173.766 127.404 173.942 126.514 173.942ZM124.87 173H126.445C127.17 173 127.771 172.86 128.248 172.58C128.724 172.301 129.08 171.903 129.314 171.386C129.548 170.869 129.665 170.254 129.665 169.541C129.665 168.833 129.549 168.223 129.318 167.712C129.087 167.199 128.741 166.805 128.282 166.531C127.822 166.254 127.25 166.116 126.565 166.116H124.87V173ZM136.481 171.253V167.366H137.491V173.942H136.481V172.829H136.412C136.258 173.163 136.018 173.447 135.693 173.681C135.368 173.912 134.957 174.028 134.46 174.028C134.049 174.028 133.684 173.938 133.364 173.758C133.044 173.575 132.793 173.301 132.61 172.936C132.428 172.568 132.336 172.104 132.336 171.544V167.366H133.347V171.476C133.347 171.955 133.481 172.338 133.749 172.623C134.02 172.909 134.366 173.051 134.785 173.051C135.036 173.051 135.292 172.987 135.552 172.859C135.814 172.73 136.034 172.533 136.211 172.268C136.391 172.002 136.481 171.664 136.481 171.253ZM142.099 174.079C141.465 174.079 140.919 173.939 140.459 173.659C140.002 173.377 139.65 172.983 139.402 172.478C139.156 171.97 139.033 171.379 139.033 170.705C139.033 170.032 139.156 169.438 139.402 168.924C139.65 168.407 139.995 168.005 140.438 167.717C140.883 167.426 141.403 167.28 141.996 167.28C142.339 167.28 142.677 167.337 143.011 167.451C143.345 167.565 143.649 167.751 143.923 168.008C144.197 168.262 144.415 168.599 144.578 169.018C144.741 169.438 144.822 169.954 144.822 170.568V170.996H139.753V170.123H143.794C143.794 169.752 143.72 169.421 143.572 169.13C143.426 168.838 143.218 168.609 142.947 168.44C142.678 168.272 142.362 168.188 141.996 168.188C141.594 168.188 141.246 168.288 140.952 168.487C140.66 168.684 140.436 168.941 140.279 169.258C140.122 169.575 140.044 169.915 140.044 170.277V170.859C140.044 171.356 140.13 171.777 140.301 172.122C140.475 172.465 140.716 172.726 141.024 172.906C141.333 173.083 141.691 173.171 142.099 173.171C142.364 173.171 142.604 173.134 142.818 173.06C143.035 172.983 143.222 172.869 143.379 172.717C143.536 172.563 143.657 172.372 143.743 172.144L144.719 172.418C144.616 172.749 144.444 173.04 144.201 173.291C143.958 173.539 143.659 173.734 143.302 173.873C142.945 174.01 142.544 174.079 142.099 174.079Z" fill="#414438" fill-opacity="0.8"></path><path d="M73.2314 195.541V183.85H73.9804V195.541H73.2314ZM75.7523 187.357C75.6975 186.895 75.4752 186.535 75.0855 186.28C74.6958 186.024 74.2178 185.896 73.6515 185.896C73.2375 185.896 72.8752 185.963 72.5646 186.097C72.2571 186.231 72.0166 186.415 71.8431 186.65C71.6726 186.884 71.5873 187.15 71.5873 187.449C71.5873 187.698 71.6467 187.913 71.7655 188.093C71.8872 188.269 72.0425 188.417 72.2313 188.536C72.42 188.651 72.6179 188.747 72.825 188.823C73.032 188.896 73.2223 188.956 73.3958 189.002L74.3457 189.257C74.5893 189.321 74.8602 189.409 75.1586 189.522C75.46 189.635 75.7477 189.789 76.0217 189.983C76.2988 190.175 76.5271 190.422 76.7067 190.723C76.8864 191.025 76.9762 191.395 76.9762 191.833C76.9762 192.338 76.8437 192.795 76.5789 193.203C76.317 193.611 75.9334 193.935 75.428 194.176C74.9257 194.416 74.3153 194.536 73.5967 194.536C72.9269 194.536 72.347 194.428 71.8568 194.212C71.3697 193.996 70.9861 193.695 70.706 193.308C70.4289 192.921 70.2721 192.472 70.2356 191.961H71.4047C71.4351 192.314 71.5539 192.606 71.7609 192.838C71.971 193.066 72.2358 193.236 72.5555 193.349C72.8782 193.459 73.2253 193.514 73.5967 193.514C74.0291 193.514 74.4172 193.443 74.7613 193.303C75.1053 193.16 75.3778 192.962 75.5787 192.71C75.7797 192.454 75.8801 192.156 75.8801 191.815C75.8801 191.504 75.7934 191.251 75.6198 191.057C75.4463 190.862 75.218 190.703 74.9348 190.582C74.6517 190.46 74.3457 190.353 74.0169 190.262L72.8661 189.933C72.1354 189.723 71.5569 189.423 71.1307 189.033C70.7044 188.644 70.4913 188.134 70.4913 187.504C70.4913 186.98 70.6329 186.523 70.916 186.134C71.2022 185.741 71.5858 185.436 72.0669 185.22C72.5509 185.001 73.0913 184.891 73.6881 184.891C74.2909 184.891 74.8267 184.999 75.2956 185.216C75.7645 185.429 76.1359 185.721 76.4099 186.092C76.6869 186.464 76.8331 186.886 76.8483 187.357H75.7523ZM81.7048 185.019V194.372H80.5722V186.207H80.5174L78.234 187.723V186.572L80.5722 185.019H81.7048ZM87.0602 194.5C86.5244 194.5 86.0418 194.393 85.6125 194.18C85.1832 193.967 84.8392 193.675 84.5804 193.303C84.3216 192.932 84.1801 192.509 84.1557 192.034H85.2517C85.2944 192.457 85.4862 192.807 85.8272 193.084C86.1712 193.358 86.5822 193.495 87.0602 193.495C87.4438 193.495 87.7848 193.405 88.0832 193.226C88.3846 193.046 88.6205 192.8 88.791 192.486C88.9646 192.169 89.0513 191.812 89.0513 191.413C89.0513 191.005 88.9615 190.641 88.7819 190.321C88.6053 189.999 88.3617 189.744 88.0512 189.559C87.7407 189.373 87.386 189.279 86.9871 189.276C86.7009 189.272 86.4071 189.317 86.1057 189.408C85.8043 189.496 85.5562 189.61 85.3613 189.75L84.3018 189.623L84.8681 185.019H89.7272V186.024H85.818L85.4892 188.782H85.544C85.7358 188.63 85.9763 188.504 86.2656 188.403C86.5548 188.303 86.8562 188.253 87.1698 188.253C87.7422 188.253 88.2521 188.39 88.6997 188.664C89.1503 188.935 89.5034 189.306 89.7592 189.778C90.018 190.25 90.1474 190.789 90.1474 191.395C90.1474 191.991 90.0134 192.524 89.7455 192.993C89.4806 193.459 89.1153 193.827 88.6494 194.098C88.1836 194.366 87.6539 194.5 87.0602 194.5ZM94.7549 194.5C94.0669 194.5 93.4808 194.313 92.9967 193.938C92.5126 193.561 92.1427 193.014 91.887 192.299C91.6313 191.58 91.5034 190.713 91.5034 189.696C91.5034 188.685 91.6313 187.822 91.887 187.106C92.1458 186.388 92.5172 185.84 93.0013 185.462C93.4884 185.082 94.073 184.891 94.7549 184.891C95.4369 184.891 96.02 185.082 96.504 185.462C96.9912 185.84 97.3626 186.388 97.6183 187.106C97.8771 187.822 98.0065 188.685 98.0065 189.696C98.0065 190.713 97.8786 191.58 97.6229 192.299C97.3672 193.014 96.9973 193.561 96.5132 193.938C96.0291 194.313 95.443 194.5 94.7549 194.5ZM94.7549 193.495C95.4369 193.495 95.9667 193.166 96.3442 192.509C96.7217 191.851 96.9105 190.913 96.9105 189.696C96.9105 188.886 96.8237 188.196 96.6502 187.627C96.4797 187.058 96.2331 186.624 95.9103 186.325C95.5907 186.027 95.2055 185.878 94.7549 185.878C94.0791 185.878 93.5508 186.211 93.1703 186.878C92.7897 187.542 92.5994 188.481 92.5994 189.696C92.5994 190.506 92.6847 191.194 92.8552 191.76C93.0256 192.326 93.2707 192.757 93.5904 193.052C93.9131 193.348 94.3013 193.495 94.7549 193.495ZM99.9619 194.445C99.7366 194.445 99.5433 194.364 99.3819 194.203C99.2206 194.042 99.1399 193.848 99.1399 193.623C99.1399 193.398 99.2206 193.204 99.3819 193.043C99.5433 192.882 99.7366 192.801 99.9619 192.801C100.187 192.801 100.381 192.882 100.542 193.043C100.703 193.204 100.784 193.398 100.784 193.623C100.784 193.772 100.746 193.909 100.67 194.034C100.597 194.159 100.498 194.259 100.373 194.336C100.251 194.409 100.114 194.445 99.9619 194.445ZM105.167 194.5C104.479 194.5 103.892 194.313 103.408 193.938C102.924 193.561 102.554 193.014 102.299 192.299C102.043 191.58 101.915 190.713 101.915 189.696C101.915 188.685 102.043 187.822 102.299 187.106C102.557 186.388 102.929 185.84 103.413 185.462C103.9 185.082 104.485 184.891 105.167 184.891C105.849 184.891 106.432 185.082 106.916 185.462C107.403 185.84 107.774 186.388 108.03 187.106C108.289 187.822 108.418 188.685 108.418 189.696C108.418 190.713 108.29 191.58 108.035 192.299C107.779 193.014 107.409 193.561 106.925 193.938C106.441 194.313 105.855 194.5 105.167 194.5ZM105.167 193.495C105.849 193.495 106.378 193.166 106.756 192.509C107.133 191.851 107.322 190.913 107.322 189.696C107.322 188.886 107.235 188.196 107.062 187.627C106.891 187.058 106.645 186.624 106.322 186.325C106.002 186.027 105.617 185.878 105.167 185.878C104.491 185.878 103.963 186.211 103.582 186.878C103.201 187.542 103.011 188.481 103.011 189.696C103.011 190.506 103.096 191.194 103.267 191.76C103.437 192.326 103.682 192.757 104.002 193.052C104.325 193.348 104.713 193.495 105.167 193.495ZM112.947 194.5C112.259 194.5 111.673 194.313 111.189 193.938C110.705 193.561 110.335 193.014 110.079 192.299C109.823 191.58 109.695 190.713 109.695 189.696C109.695 188.685 109.823 187.822 110.079 187.106C110.338 186.388 110.709 185.84 111.193 185.462C111.68 185.082 112.265 184.891 112.947 184.891C113.629 184.891 114.212 185.082 114.696 185.462C115.183 185.84 115.555 186.388 115.81 187.106C116.069 187.822 116.199 188.685 116.199 189.696C116.199 190.713 116.071 191.58 115.815 192.299C115.559 193.014 115.189 193.561 114.705 193.938C114.221 194.313 113.635 194.5 112.947 194.5ZM112.947 193.495C113.629 193.495 114.159 193.166 114.536 192.509C114.914 191.851 115.103 190.913 115.103 189.696C115.103 188.886 115.016 188.196 114.842 187.627C114.672 187.058 114.425 186.624 114.102 186.325C113.783 186.027 113.398 185.878 112.947 185.878C112.271 185.878 111.743 186.211 111.362 186.878C110.982 187.542 110.791 188.481 110.791 189.696C110.791 190.506 110.877 191.194 111.047 191.76C111.218 192.326 111.463 192.757 111.782 193.052C112.105 193.348 112.493 193.495 112.947 193.495Z" fill="#0D0E14"></path><path d="M123.288 187.029L121.027 195.427H120.288L122.548 187.029H123.288ZM124.053 194.372V189.111H124.834V189.933H124.903C125.012 189.652 125.189 189.434 125.433 189.279C125.678 189.121 125.971 189.043 126.314 189.043C126.661 189.043 126.95 189.121 127.18 189.279C127.413 189.434 127.595 189.652 127.725 189.933H127.78C127.914 189.661 128.116 189.446 128.386 189.286C128.655 189.124 128.978 189.043 129.355 189.043C129.826 189.043 130.21 189.19 130.51 189.484C130.809 189.777 130.958 190.232 130.958 190.851V194.372H130.15V190.851C130.15 190.463 130.044 190.185 129.831 190.019C129.619 189.852 129.369 189.769 129.081 189.769C128.711 189.769 128.425 189.881 128.222 190.104C128.018 190.326 127.917 190.607 127.917 190.947V194.372H127.095V190.769C127.095 190.47 126.998 190.229 126.804 190.046C126.609 189.861 126.359 189.769 126.053 189.769C125.843 189.769 125.647 189.825 125.464 189.937C125.284 190.048 125.138 190.204 125.026 190.402C124.916 190.599 124.862 190.826 124.862 191.084V194.372H124.053ZM134.38 194.482C133.906 194.482 133.489 194.369 133.13 194.143C132.774 193.917 132.496 193.6 132.295 193.194C132.096 192.787 131.997 192.312 131.997 191.769C131.997 191.221 132.096 190.743 132.295 190.334C132.496 189.925 132.774 189.608 133.13 189.382C133.489 189.156 133.906 189.043 134.38 189.043C134.855 189.043 135.271 189.156 135.627 189.382C135.986 189.608 136.264 189.925 136.463 190.334C136.664 190.743 136.764 191.221 136.764 191.769C136.764 192.312 136.664 192.787 136.463 193.194C136.264 193.6 135.986 193.917 135.627 194.143C135.271 194.369 134.855 194.482 134.38 194.482ZM134.38 193.756C134.741 193.756 135.038 193.663 135.271 193.478C135.504 193.293 135.676 193.05 135.788 192.749C135.9 192.447 135.956 192.121 135.956 191.769C135.956 191.417 135.9 191.09 135.788 190.786C135.676 190.482 135.504 190.237 135.271 190.05C135.038 189.862 134.741 189.769 134.38 189.769C134.02 189.769 133.723 189.862 133.49 190.05C133.257 190.237 133.085 190.482 132.973 190.786C132.861 191.09 132.805 191.417 132.805 191.769C132.805 192.121 132.861 192.447 132.973 192.749C133.085 193.05 133.257 193.293 133.49 193.478C133.723 193.663 134.02 193.756 134.38 193.756ZM138.614 191.207V194.372H137.805V189.111H138.586V189.933H138.655C138.778 189.666 138.965 189.451 139.217 189.289C139.468 189.125 139.792 189.043 140.189 189.043C140.545 189.043 140.857 189.116 141.124 189.262C141.391 189.406 141.599 189.625 141.748 189.919C141.896 190.212 141.97 190.582 141.97 191.029V194.372H141.162V191.084C141.162 190.671 141.055 190.349 140.84 190.118C140.625 189.885 140.331 189.769 139.956 189.769C139.698 189.769 139.468 189.825 139.264 189.937C139.064 190.048 138.905 190.212 138.788 190.426C138.672 190.641 138.614 190.901 138.614 191.207ZM145.542 189.111V189.796H142.816V189.111H145.542ZM143.611 187.851H144.419V192.865C144.419 193.093 144.452 193.265 144.518 193.379C144.587 193.491 144.674 193.566 144.779 193.605C144.886 193.641 144.999 193.66 145.118 193.66C145.207 193.66 145.28 193.655 145.337 193.646C145.394 193.635 145.44 193.625 145.474 193.619L145.638 194.345C145.584 194.365 145.507 194.386 145.409 194.406C145.311 194.429 145.186 194.441 145.036 194.441C144.807 194.441 144.583 194.391 144.364 194.293C144.147 194.195 143.967 194.046 143.823 193.845C143.681 193.644 143.611 193.39 143.611 193.084V187.851ZM147.487 191.207V194.372H146.678V187.357H147.487V189.933H147.555C147.679 189.661 147.864 189.446 148.11 189.286C148.359 189.124 148.69 189.043 149.103 189.043C149.462 189.043 149.776 189.115 150.045 189.258C150.315 189.4 150.524 189.618 150.672 189.913C150.823 190.205 150.898 190.577 150.898 191.029V194.372H150.09V191.084C150.09 190.666 149.981 190.343 149.764 190.115C149.55 189.884 149.252 189.769 148.871 189.769C148.606 189.769 148.368 189.825 148.158 189.937C147.95 190.048 147.786 190.212 147.665 190.426C147.546 190.641 147.487 190.901 147.487 191.207Z" fill="white" fill-opacity="0.4"></path><path d="M201.814 167.914H200.752C200.689 167.608 200.579 167.34 200.422 167.109C200.268 166.878 200.08 166.684 199.857 166.527C199.637 166.367 199.393 166.247 199.125 166.167C198.857 166.087 198.577 166.047 198.286 166.047C197.755 166.047 197.274 166.181 196.843 166.449C196.415 166.718 196.074 167.113 195.82 167.635C195.569 168.158 195.443 168.799 195.443 169.558C195.443 170.317 195.569 170.958 195.82 171.48C196.074 172.002 196.415 172.398 196.843 172.666C197.274 172.934 197.755 173.068 198.286 173.068C198.577 173.068 198.857 173.029 199.125 172.949C199.393 172.869 199.637 172.75 199.857 172.593C200.08 172.433 200.268 172.238 200.422 172.007C200.579 171.773 200.689 171.504 200.752 171.202H201.814C201.734 171.65 201.588 172.051 201.377 172.405C201.166 172.759 200.903 173.06 200.589 173.308C200.275 173.554 199.923 173.741 199.532 173.869C199.144 173.998 198.728 174.062 198.286 174.062C197.538 174.062 196.873 173.879 196.291 173.514C195.709 173.148 195.25 172.629 194.916 171.955C194.583 171.282 194.416 170.483 194.416 169.558C194.416 168.633 194.583 167.834 194.916 167.16C195.25 166.487 195.709 165.967 196.291 165.602C196.873 165.236 197.538 165.054 198.286 165.054C198.728 165.054 199.144 165.118 199.532 165.246C199.923 165.375 200.275 165.563 200.589 165.812C200.903 166.057 201.166 166.357 201.377 166.711C201.588 167.062 201.734 167.463 201.814 167.914ZM207.537 171.253V167.366H208.547V173.942H207.537V172.829H207.468C207.314 173.163 207.075 173.447 206.749 173.681C206.424 173.912 206.013 174.028 205.516 174.028C205.105 174.028 204.74 173.938 204.42 173.758C204.1 173.575 203.849 173.301 203.667 172.936C203.484 172.568 203.393 172.104 203.393 171.544V167.366H204.403V171.476C204.403 171.955 204.537 172.338 204.805 172.623C205.077 172.909 205.422 173.051 205.842 173.051C206.093 173.051 206.348 172.987 206.608 172.859C206.87 172.73 207.09 172.533 207.267 172.268C207.447 172.002 207.537 171.664 207.537 171.253ZM210.398 173.942V167.366H211.374V168.359H211.443C211.563 168.034 211.779 167.77 212.093 167.567C212.407 167.364 212.761 167.263 213.155 167.263C213.229 167.263 213.322 167.264 213.433 167.267C213.545 167.27 213.629 167.274 213.686 167.28V168.308C213.652 168.299 213.573 168.286 213.451 168.269C213.331 168.249 213.204 168.239 213.07 168.239C212.75 168.239 212.464 168.306 212.213 168.44C211.965 168.572 211.768 168.754 211.622 168.988C211.48 169.22 211.408 169.484 211.408 169.78V173.942H210.398ZM214.884 173.942V167.366H215.86V168.359H215.928C216.048 168.034 216.265 167.77 216.579 167.567C216.893 167.364 217.247 167.263 217.641 167.263C217.715 167.263 217.808 167.264 217.919 167.267C218.031 167.27 218.115 167.274 218.172 167.28V168.308C218.138 168.299 218.059 168.286 217.936 168.269C217.817 168.249 217.69 168.239 217.555 168.239C217.236 168.239 216.95 168.306 216.699 168.44C216.451 168.572 216.254 168.754 216.108 168.988C215.966 169.22 215.894 169.484 215.894 169.78V173.942H214.884ZM221.927 174.079C221.293 174.079 220.746 173.939 220.287 173.659C219.83 173.377 219.478 172.983 219.229 172.478C218.984 171.97 218.861 171.379 218.861 170.705C218.861 170.032 218.984 169.438 219.229 168.924C219.478 168.407 219.823 168.005 220.265 167.717C220.711 167.426 221.23 167.28 221.824 167.28C222.166 167.28 222.505 167.337 222.839 167.451C223.173 167.565 223.477 167.751 223.751 168.008C224.025 168.262 224.243 168.599 224.406 169.018C224.568 169.438 224.65 169.954 224.65 170.568V170.996H219.58V170.123H223.622C223.622 169.752 223.548 169.421 223.399 169.13C223.254 168.838 223.046 168.609 222.774 168.44C222.506 168.272 222.189 168.188 221.824 168.188C221.421 168.188 221.073 168.288 220.779 168.487C220.488 168.684 220.264 168.941 220.107 169.258C219.95 169.575 219.872 169.915 219.872 170.277V170.859C219.872 171.356 219.957 171.777 220.128 172.122C220.303 172.465 220.544 172.726 220.852 172.906C221.16 173.083 221.519 173.171 221.927 173.171C222.192 173.171 222.432 173.134 222.646 173.06C222.863 172.983 223.05 172.869 223.207 172.717C223.364 172.563 223.485 172.372 223.571 172.144L224.547 172.418C224.444 172.749 224.271 173.04 224.029 173.291C223.786 173.539 223.487 173.734 223.13 173.873C222.773 174.01 222.372 174.079 221.927 174.079ZM227.197 169.986V173.942H226.187V167.366H227.163V168.393H227.248C227.403 168.059 227.637 167.791 227.951 167.588C228.265 167.383 228.67 167.28 229.166 167.28C229.612 167.28 230.001 167.371 230.335 167.554C230.669 167.734 230.929 168.008 231.115 168.376C231.3 168.741 231.393 169.204 231.393 169.763V173.942H230.382V169.832C230.382 169.315 230.248 168.913 229.98 168.624C229.712 168.333 229.343 168.188 228.875 168.188C228.553 168.188 228.265 168.258 228.011 168.398C227.759 168.537 227.561 168.741 227.415 169.01C227.27 169.278 227.197 169.603 227.197 169.986ZM236.099 167.366V168.222H232.691V167.366H236.099ZM233.684 165.79H234.695V172.058C234.695 172.344 234.736 172.558 234.819 172.7C234.905 172.84 235.013 172.934 235.144 172.983C235.279 173.029 235.42 173.051 235.568 173.051C235.68 173.051 235.771 173.046 235.842 173.034C235.914 173.02 235.971 173.009 236.013 173L236.219 173.908C236.15 173.933 236.055 173.959 235.932 173.985C235.809 174.013 235.654 174.028 235.465 174.028C235.18 174.028 234.9 173.966 234.626 173.843C234.355 173.721 234.13 173.534 233.95 173.283C233.773 173.031 233.684 172.715 233.684 172.332V165.79ZM241.147 173.942V165.174H244.212C244.823 165.174 245.327 165.279 245.724 165.49C246.12 165.699 246.416 165.98 246.61 166.334C246.804 166.685 246.901 167.075 246.901 167.503C246.901 167.879 246.834 168.191 246.7 168.436C246.569 168.682 246.394 168.876 246.177 169.018C245.963 169.161 245.731 169.267 245.48 169.335V169.421C245.748 169.438 246.018 169.532 246.289 169.703C246.56 169.875 246.787 170.12 246.97 170.44C247.152 170.759 247.244 171.15 247.244 171.613C247.244 172.052 247.144 172.448 246.944 172.799C246.744 173.15 246.429 173.428 245.998 173.634C245.567 173.839 245.006 173.942 244.315 173.942H241.147ZM242.209 173H244.315C245.009 173 245.501 172.866 245.792 172.598C246.086 172.326 246.233 171.998 246.233 171.613C246.233 171.316 246.158 171.042 246.006 170.791C245.855 170.537 245.639 170.334 245.36 170.183C245.08 170.029 244.749 169.952 244.366 169.952H242.209V173ZM242.209 169.027H244.178C244.498 169.027 244.786 168.964 245.043 168.838C245.303 168.713 245.508 168.536 245.659 168.308C245.814 168.079 245.891 167.811 245.891 167.503C245.891 167.117 245.756 166.791 245.488 166.522C245.22 166.251 244.795 166.116 244.212 166.116H242.209V169.027ZM250.786 174.096C250.37 174.096 249.991 174.018 249.652 173.861C249.312 173.701 249.042 173.471 248.843 173.171C248.643 172.869 248.543 172.503 248.543 172.075C248.543 171.698 248.617 171.393 248.766 171.159C248.914 170.922 249.112 170.737 249.361 170.602C249.609 170.468 249.883 170.368 250.183 170.303C250.485 170.234 250.789 170.18 251.095 170.14C251.494 170.089 251.818 170.05 252.067 170.024C252.318 169.996 252.5 169.949 252.615 169.883C252.732 169.817 252.79 169.703 252.79 169.541V169.506C252.79 169.084 252.674 168.756 252.443 168.522C252.215 168.288 251.868 168.171 251.403 168.171C250.921 168.171 250.542 168.276 250.268 168.487C249.994 168.699 249.802 168.924 249.69 169.164L248.731 168.821C248.903 168.422 249.131 168.111 249.416 167.888C249.705 167.663 250.019 167.506 250.358 167.417C250.701 167.326 251.038 167.28 251.369 167.28C251.58 167.28 251.822 167.306 252.096 167.357C252.373 167.406 252.64 167.507 252.897 167.661C253.157 167.815 253.372 168.048 253.544 168.359C253.715 168.67 253.8 169.087 253.8 169.609V173.942H252.79V173.051H252.739C252.67 173.194 252.556 173.347 252.396 173.509C252.236 173.672 252.024 173.811 251.758 173.925C251.493 174.039 251.169 174.096 250.786 174.096ZM250.941 173.188C251.34 173.188 251.677 173.11 251.951 172.953C252.228 172.796 252.436 172.593 252.576 172.345C252.719 172.097 252.79 171.835 252.79 171.561V170.637C252.747 170.688 252.653 170.735 252.508 170.778C252.365 170.818 252.199 170.854 252.011 170.885C251.825 170.914 251.644 170.939 251.467 170.962C251.293 170.982 251.152 170.999 251.043 171.013C250.781 171.048 250.535 171.103 250.307 171.18C250.081 171.255 249.899 171.367 249.759 171.519C249.622 171.667 249.553 171.87 249.553 172.127C249.553 172.478 249.683 172.743 249.943 172.923C250.206 173.1 250.538 173.188 250.941 173.188ZM256.655 165.174V173.942H255.645V165.174H256.655ZM260.441 174.096C260.024 174.096 259.646 174.018 259.306 173.861C258.967 173.701 258.697 173.471 258.497 173.171C258.297 172.869 258.197 172.503 258.197 172.075C258.197 171.698 258.272 171.393 258.42 171.159C258.569 170.922 258.767 170.737 259.015 170.602C259.264 170.468 259.538 170.368 259.837 170.303C260.14 170.234 260.444 170.18 260.749 170.14C261.149 170.089 261.473 170.05 261.721 170.024C261.972 169.996 262.155 169.949 262.269 169.883C262.386 169.817 262.445 169.703 262.445 169.541V169.506C262.445 169.084 262.329 168.756 262.098 168.522C261.869 168.288 261.523 168.171 261.057 168.171C260.575 168.171 260.197 168.276 259.923 168.487C259.649 168.699 259.456 168.924 259.345 169.164L258.386 168.821C258.557 168.422 258.785 168.111 259.071 167.888C259.359 167.663 259.673 167.506 260.013 167.417C260.355 167.326 260.692 167.28 261.023 167.28C261.234 167.28 261.477 167.306 261.751 167.357C262.028 167.406 262.295 167.507 262.552 167.661C262.811 167.815 263.027 168.048 263.198 168.359C263.369 168.67 263.455 169.087 263.455 169.609V173.942H262.445V173.051H262.393C262.325 173.194 262.211 173.347 262.051 173.509C261.891 173.672 261.678 173.811 261.413 173.925C261.147 174.039 260.823 174.096 260.441 174.096ZM260.595 173.188C260.995 173.188 261.331 173.11 261.605 172.953C261.882 172.796 262.091 172.593 262.231 172.345C262.373 172.097 262.445 171.835 262.445 171.561V170.637C262.402 170.688 262.308 170.735 262.162 170.778C262.019 170.818 261.854 170.854 261.665 170.885C261.48 170.914 261.299 170.939 261.122 170.962C260.948 170.982 260.806 170.999 260.698 171.013C260.435 171.048 260.19 171.103 259.961 171.18C259.736 171.255 259.553 171.367 259.413 171.519C259.276 171.667 259.208 171.87 259.208 172.127C259.208 172.478 259.338 172.743 259.597 172.923C259.86 173.1 260.193 173.188 260.595 173.188ZM266.31 169.986V173.942H265.299V167.366H266.275V168.393H266.361C266.515 168.059 266.749 167.791 267.063 167.588C267.377 167.383 267.782 167.28 268.279 167.28C268.724 167.28 269.114 167.371 269.448 167.554C269.782 167.734 270.042 168.008 270.227 168.376C270.413 168.741 270.505 169.204 270.505 169.763V173.942H269.495V169.832C269.495 169.315 269.361 168.913 269.093 168.624C268.824 168.333 268.456 168.188 267.988 168.188C267.665 168.188 267.377 168.258 267.123 168.398C266.872 168.537 266.674 168.741 266.528 169.01C266.382 169.278 266.31 169.603 266.31 169.986ZM275.023 174.079C274.407 174.079 273.876 173.933 273.431 173.642C272.985 173.351 272.643 172.95 272.403 172.439C272.163 171.928 272.043 171.345 272.043 170.688C272.043 170.02 272.166 169.431 272.412 168.92C272.66 168.406 273.005 168.005 273.448 167.717C273.893 167.426 274.412 167.28 275.006 167.28C275.469 167.28 275.885 167.366 276.256 167.537C276.627 167.708 276.931 167.948 277.168 168.256C277.405 168.564 277.552 168.924 277.609 169.335H276.599C276.522 169.035 276.351 168.77 276.085 168.539C275.822 168.305 275.469 168.188 275.023 168.188C274.629 168.188 274.284 168.29 273.987 168.496C273.693 168.699 273.463 168.985 273.298 169.357C273.135 169.725 273.054 170.157 273.054 170.654C273.054 171.162 273.134 171.604 273.294 171.981C273.456 172.358 273.685 172.65 273.979 172.859C274.275 173.067 274.624 173.171 275.023 173.171C275.286 173.171 275.524 173.126 275.738 173.034C275.952 172.943 276.134 172.812 276.282 172.64C276.43 172.469 276.536 172.264 276.599 172.024H277.609C277.552 172.412 277.411 172.762 277.185 173.073C276.963 173.381 276.667 173.626 276.299 173.809C275.934 173.989 275.509 174.079 275.023 174.079ZM281.844 174.079C281.21 174.079 280.663 173.939 280.204 173.659C279.747 173.377 279.395 172.983 279.146 172.478C278.901 171.97 278.778 171.379 278.778 170.705C278.778 170.032 278.901 169.438 279.146 168.924C279.395 168.407 279.74 168.005 280.182 167.717C280.628 167.426 281.147 167.28 281.741 167.28C282.083 167.28 282.422 167.337 282.755 167.451C283.089 167.565 283.393 167.751 283.667 168.008C283.941 168.262 284.16 168.599 284.322 169.018C284.485 169.438 284.567 169.954 284.567 170.568V170.996H279.497V170.123H283.539C283.539 169.752 283.465 169.421 283.316 169.13C283.171 168.838 282.962 168.609 282.691 168.44C282.423 168.272 282.106 168.188 281.741 168.188C281.338 168.188 280.99 168.288 280.696 168.487C280.405 168.684 280.181 168.941 280.024 169.258C279.867 169.575 279.788 169.915 279.788 170.277V170.859C279.788 171.356 279.874 171.777 280.045 172.122C280.219 172.465 280.461 172.726 280.769 172.906C281.077 173.083 281.435 173.171 281.844 173.171C282.109 173.171 282.349 173.134 282.563 173.06C282.78 172.983 282.967 172.869 283.124 172.717C283.281 172.563 283.402 172.372 283.488 172.144L284.464 172.418C284.361 172.749 284.188 173.04 283.946 173.291C283.703 173.539 283.403 173.734 283.047 173.873C282.69 174.01 282.289 174.079 281.844 174.079Z" fill="#414438" fill-opacity="0.8"></path><path d="M197.423 195.541V183.85H198.172V195.541H197.423ZM199.944 187.357C199.889 186.895 199.667 186.535 199.277 186.28C198.887 186.024 198.409 185.896 197.843 185.896C197.429 185.896 197.067 185.963 196.756 186.097C196.449 186.231 196.208 186.415 196.034 186.65C195.864 186.884 195.779 187.15 195.779 187.449C195.779 187.698 195.838 187.913 195.957 188.093C196.079 188.269 196.234 188.417 196.423 188.536C196.611 188.651 196.809 188.747 197.016 188.823C197.223 188.896 197.414 188.956 197.587 189.002L198.537 189.257C198.781 189.321 199.052 189.409 199.35 189.522C199.651 189.635 199.939 189.789 200.213 189.983C200.49 190.175 200.719 190.422 200.898 190.723C201.078 191.025 201.168 191.395 201.168 191.833C201.168 192.338 201.035 192.795 200.77 193.203C200.508 193.611 200.125 193.935 199.619 194.176C199.117 194.416 198.507 194.536 197.788 194.536C197.118 194.536 196.538 194.428 196.048 194.212C195.561 193.996 195.177 193.695 194.897 193.308C194.62 192.921 194.464 192.472 194.427 191.961H195.596C195.627 192.314 195.745 192.606 195.952 192.838C196.162 193.066 196.427 193.236 196.747 193.349C197.07 193.459 197.417 193.514 197.788 193.514C198.22 193.514 198.609 193.443 198.953 193.303C199.297 193.16 199.569 192.962 199.77 192.71C199.971 192.454 200.072 192.156 200.072 191.815C200.072 191.504 199.985 191.251 199.811 191.057C199.638 190.862 199.409 190.703 199.126 190.582C198.843 190.46 198.537 190.353 198.208 190.262L197.057 189.933C196.327 189.723 195.748 189.423 195.322 189.033C194.896 188.644 194.683 188.134 194.683 187.504C194.683 186.98 194.824 186.523 195.107 186.134C195.394 185.741 195.777 185.436 196.258 185.22C196.742 185.001 197.283 184.891 197.879 184.891C198.482 184.891 199.018 184.999 199.487 185.216C199.956 185.429 200.327 185.721 200.601 186.092C200.878 186.464 201.024 186.886 201.04 187.357H199.944ZM202.608 194.372V193.55L205.695 190.171C206.058 189.775 206.356 189.431 206.59 189.139C206.825 188.843 206.998 188.566 207.111 188.307C207.227 188.046 207.285 187.772 207.285 187.485C207.285 187.157 207.205 186.872 207.047 186.631C206.892 186.391 206.679 186.205 206.408 186.074C206.137 185.943 205.832 185.878 205.494 185.878C205.135 185.878 204.821 185.952 204.554 186.102C204.289 186.248 204.083 186.453 203.937 186.718C203.794 186.983 203.722 187.294 203.722 187.65H202.645C202.645 187.102 202.771 186.621 203.024 186.207C203.276 185.793 203.62 185.47 204.056 185.238C204.494 185.007 204.986 184.891 205.531 184.891C206.079 184.891 206.564 185.007 206.988 185.238C207.411 185.47 207.743 185.782 207.983 186.175C208.224 186.567 208.344 187.004 208.344 187.485C208.344 187.829 208.282 188.166 208.157 188.495C208.035 188.82 207.822 189.184 207.517 189.586C207.216 189.985 206.797 190.472 206.262 191.047L204.161 193.294V193.367H208.508V194.372H202.608ZM211.763 193.093L211.69 193.587C211.638 193.934 211.559 194.305 211.453 194.701C211.349 195.097 211.241 195.47 211.128 195.82C211.016 196.17 210.923 196.448 210.85 196.655H210.028C210.067 196.461 210.119 196.203 210.183 195.884C210.247 195.564 210.311 195.206 210.375 194.81C210.442 194.418 210.497 194.016 210.539 193.605L210.594 193.093H211.763ZM216.191 194.5C215.564 194.5 215.01 194.389 214.529 194.167C214.051 193.941 213.678 193.632 213.41 193.24C213.142 192.844 213.01 192.393 213.013 191.888C213.01 191.492 213.088 191.127 213.246 190.792C213.404 190.454 213.62 190.172 213.894 189.947C214.171 189.718 214.48 189.574 214.821 189.513V189.458C214.374 189.342 214.018 189.091 213.753 188.705C213.488 188.315 213.357 187.872 213.36 187.376C213.357 186.901 213.477 186.476 213.721 186.102C213.964 185.727 214.299 185.432 214.725 185.216C215.155 184.999 215.643 184.891 216.191 184.891C216.733 184.891 217.217 184.999 217.644 185.216C218.07 185.432 218.405 185.727 218.648 186.102C218.895 186.476 219.02 186.901 219.023 187.376C219.02 187.872 218.884 188.315 218.616 188.705C218.352 189.091 218 189.342 217.561 189.458V189.513C217.899 189.574 218.204 189.718 218.475 189.947C218.746 190.172 218.962 190.454 219.123 190.792C219.285 191.127 219.367 191.492 219.37 191.888C219.367 192.393 219.23 192.844 218.959 193.24C218.691 193.632 218.318 193.941 217.84 194.167C217.365 194.389 216.816 194.5 216.191 194.5ZM216.191 193.495C216.615 193.495 216.98 193.427 217.287 193.29C217.595 193.153 217.832 192.959 218 192.71C218.167 192.46 218.253 192.168 218.256 191.833C218.253 191.48 218.161 191.168 217.982 190.897C217.802 190.626 217.557 190.413 217.246 190.257C216.939 190.102 216.587 190.024 216.191 190.024C215.793 190.024 215.436 190.102 215.123 190.257C214.812 190.413 214.567 190.626 214.388 190.897C214.211 191.168 214.124 191.48 214.127 191.833C214.124 192.168 214.205 192.46 214.369 192.71C214.537 192.959 214.776 193.153 215.086 193.29C215.397 193.427 215.765 193.495 216.191 193.495ZM216.191 189.056C216.526 189.056 216.823 188.989 217.082 188.855C217.344 188.721 217.549 188.534 217.698 188.294C217.848 188.053 217.924 187.772 217.927 187.449C217.924 187.132 217.849 186.857 217.703 186.622C217.557 186.385 217.354 186.202 217.096 186.074C216.837 185.943 216.535 185.878 216.191 185.878C215.841 185.878 215.535 185.943 215.273 186.074C215.012 186.202 214.809 186.385 214.666 186.622C214.523 186.857 214.453 187.132 214.456 187.449C214.453 187.772 214.525 188.053 214.671 188.294C214.82 188.534 215.025 188.721 215.287 188.855C215.549 188.989 215.85 189.056 216.191 189.056ZM223.786 194.5C223.25 194.5 222.767 194.393 222.338 194.18C221.909 193.967 221.565 193.675 221.306 193.303C221.047 192.932 220.906 192.509 220.881 192.034H221.977C222.02 192.457 222.212 192.807 222.553 193.084C222.897 193.358 223.308 193.495 223.786 193.495C224.169 193.495 224.51 193.405 224.809 193.226C225.11 193.046 225.346 192.8 225.517 192.486C225.69 192.169 225.777 191.812 225.777 191.413C225.777 191.005 225.687 190.641 225.507 190.321C225.331 189.999 225.087 189.744 224.777 189.559C224.466 189.373 224.111 189.279 223.713 189.276C223.426 189.272 223.133 189.317 222.831 189.408C222.53 189.496 222.282 189.61 222.087 189.75L221.027 189.623L221.594 185.019H226.453V186.024H222.544L222.215 188.782H222.27C222.461 188.63 222.702 188.504 222.991 188.403C223.28 188.303 223.582 188.253 223.895 188.253C224.468 188.253 224.978 188.39 225.425 188.664C225.876 188.935 226.229 189.306 226.485 189.778C226.743 190.25 226.873 190.789 226.873 191.395C226.873 191.991 226.739 192.524 226.471 192.993C226.206 193.459 225.841 193.827 225.375 194.098C224.909 194.366 224.379 194.5 223.786 194.5ZM231.48 194.5C230.792 194.5 230.206 194.313 229.722 193.938C229.238 193.561 228.868 193.014 228.613 192.299C228.357 191.58 228.229 190.713 228.229 189.696C228.229 188.685 228.357 187.822 228.613 187.106C228.871 186.388 229.243 185.84 229.727 185.462C230.214 185.082 230.798 184.891 231.48 184.891C232.162 184.891 232.745 185.082 233.23 185.462C233.717 185.84 234.088 186.388 234.344 187.106C234.603 187.822 234.732 188.685 234.732 189.696C234.732 190.713 234.604 191.58 234.348 192.299C234.093 193.014 233.723 193.561 233.239 193.938C232.755 194.313 232.169 194.5 231.48 194.5ZM231.48 193.495C232.162 193.495 232.692 193.166 233.07 192.509C233.447 191.851 233.636 190.913 233.636 189.696C233.636 188.886 233.549 188.196 233.376 187.627C233.205 187.058 232.959 186.624 232.636 186.325C232.316 186.027 231.931 185.878 231.48 185.878C230.805 185.878 230.276 186.211 229.896 186.878C229.515 187.542 229.325 188.481 229.325 189.696C229.325 190.506 229.41 191.194 229.581 191.76C229.751 192.326 229.996 192.757 230.316 193.052C230.639 193.348 231.027 193.495 231.48 193.495ZM236.687 194.445C236.462 194.445 236.269 194.364 236.107 194.203C235.946 194.042 235.865 193.848 235.865 193.623C235.865 193.398 235.946 193.204 236.107 193.043C236.269 192.882 236.462 192.801 236.687 192.801C236.913 192.801 237.106 192.882 237.267 193.043C237.429 193.204 237.509 193.398 237.509 193.623C237.509 193.772 237.471 193.909 237.395 194.034C237.322 194.159 237.223 194.259 237.098 194.336C236.977 194.409 236.84 194.445 236.687 194.445ZM241.892 194.5C241.204 194.5 240.618 194.313 240.134 193.938C239.65 193.561 239.28 193.014 239.024 192.299C238.768 191.58 238.641 190.713 238.641 189.696C238.641 188.685 238.768 187.822 239.024 187.106C239.283 186.388 239.654 185.84 240.138 185.462C240.626 185.082 241.21 184.891 241.892 184.891C242.574 184.891 243.157 185.082 243.641 185.462C244.128 185.84 244.5 186.388 244.756 187.106C245.014 187.822 245.144 188.685 245.144 189.696C245.144 190.713 245.016 191.58 244.76 192.299C244.504 193.014 244.134 193.561 243.65 193.938C243.166 194.313 242.58 194.5 241.892 194.5ZM241.892 193.495C242.574 193.495 243.104 193.166 243.481 192.509C243.859 191.851 244.048 190.913 244.048 189.696C244.048 188.886 243.961 188.196 243.787 187.627C243.617 187.058 243.37 186.624 243.048 186.325C242.728 186.027 242.343 185.878 241.892 185.878C241.216 185.878 240.688 186.211 240.307 186.878C239.927 187.542 239.737 188.481 239.737 189.696C239.737 190.506 239.822 191.194 239.992 191.76C240.163 192.326 240.408 192.757 240.728 193.052C241.05 193.348 241.439 193.495 241.892 193.495ZM249.673 194.5C248.984 194.5 248.398 194.313 247.914 193.938C247.43 193.561 247.06 193.014 246.805 192.299C246.549 191.58 246.421 190.713 246.421 189.696C246.421 188.685 246.549 187.822 246.805 187.106C247.063 186.388 247.435 185.84 247.919 185.462C248.406 185.082 248.991 184.891 249.673 184.891C250.355 184.891 250.938 185.082 251.422 185.462C251.909 185.84 252.28 186.388 252.536 187.106C252.795 187.822 252.924 188.685 252.924 189.696C252.924 190.713 252.796 191.58 252.54 192.299C252.285 193.014 251.915 193.561 251.431 193.938C250.947 194.313 250.361 194.5 249.673 194.5ZM249.673 193.495C250.355 193.495 250.884 193.166 251.262 192.509C251.639 191.851 251.828 190.913 251.828 189.696C251.828 188.886 251.741 188.196 251.568 187.627C251.397 187.058 251.151 186.624 250.828 186.325C250.508 186.027 250.123 185.878 249.673 185.878C248.997 185.878 248.468 186.211 248.088 186.878C247.707 187.542 247.517 188.481 247.517 189.696C247.517 190.506 247.602 191.194 247.773 191.76C247.943 192.326 248.188 192.757 248.508 193.052C248.831 193.348 249.219 193.495 249.673 193.495Z" fill="#0D0E14"></path><path d="M334.901 165.174V173.942H333.874L329.096 167.057H329.01V173.942H327.949V165.174H328.976L333.771 172.075H333.857V165.174H334.901ZM339.646 174.079C339.013 174.079 338.466 173.939 338.007 173.659C337.55 173.377 337.197 172.983 336.949 172.478C336.704 171.97 336.581 171.379 336.581 170.705C336.581 170.032 336.704 169.438 336.949 168.924C337.197 168.407 337.543 168.005 337.985 167.717C338.43 167.426 338.95 167.28 339.544 167.28C339.886 167.28 340.224 167.337 340.558 167.451C340.892 167.565 341.196 167.751 341.47 168.008C341.744 168.262 341.963 168.599 342.125 169.018C342.288 169.438 342.369 169.954 342.369 170.568V170.996H337.3V170.123H341.342C341.342 169.752 341.268 169.421 341.119 169.13C340.974 168.838 340.765 168.609 340.494 168.44C340.226 168.272 339.909 168.188 339.544 168.188C339.141 168.188 338.793 168.288 338.499 168.487C338.208 168.684 337.984 168.941 337.827 169.258C337.67 169.575 337.591 169.915 337.591 170.277V170.859C337.591 171.356 337.677 171.777 337.848 172.122C338.022 172.465 338.263 172.726 338.572 172.906C338.88 173.083 339.238 173.171 339.646 173.171C339.912 173.171 340.152 173.134 340.366 173.06C340.583 172.983 340.769 172.869 340.926 172.717C341.083 172.563 341.205 172.372 341.29 172.144L342.267 172.418C342.164 172.749 341.991 173.04 341.748 173.291C341.506 173.539 341.206 173.734 340.849 173.873C340.493 174.01 340.092 174.079 339.646 174.079ZM344.483 167.366L346.059 170.054L347.634 167.366H348.799L346.675 170.654L348.799 173.942H347.634L346.059 171.39L344.483 173.942H343.319L345.408 170.654L343.319 167.366H344.483ZM353.101 167.366V168.222H349.693V167.366H353.101ZM350.686 165.79H351.696V172.058C351.696 172.344 351.738 172.558 351.82 172.7C351.906 172.84 352.015 172.934 352.146 172.983C352.28 173.029 352.421 173.051 352.57 173.051C352.681 173.051 352.772 173.046 352.844 173.034C352.915 173.02 352.972 173.009 353.015 173L353.22 173.908C353.152 173.933 353.056 173.959 352.934 173.985C352.811 174.013 352.655 174.028 352.467 174.028C352.181 174.028 351.902 173.966 351.628 173.843C351.357 173.721 351.131 173.534 350.951 173.283C350.774 173.031 350.686 172.715 350.686 172.332V165.79ZM358.148 173.942V165.174H361.111C361.799 165.174 362.361 165.298 362.798 165.546C363.237 165.792 363.563 166.124 363.774 166.544C363.985 166.963 364.091 167.431 364.091 167.948C364.091 168.465 363.985 168.934 363.774 169.357C363.566 169.779 363.243 170.116 362.806 170.367C362.37 170.615 361.81 170.739 361.128 170.739H359.005V169.798H361.094C361.565 169.798 361.943 169.716 362.228 169.553C362.514 169.391 362.721 169.171 362.849 168.894C362.981 168.614 363.046 168.299 363.046 167.948C363.046 167.597 362.981 167.283 362.849 167.006C362.721 166.729 362.512 166.512 362.224 166.355C361.936 166.195 361.553 166.116 361.077 166.116H359.21V173.942H358.148ZM367.599 174.096C367.183 174.096 366.805 174.018 366.465 173.861C366.125 173.701 365.856 173.471 365.656 173.171C365.456 172.869 365.356 172.503 365.356 172.075C365.356 171.698 365.43 171.393 365.579 171.159C365.727 170.922 365.925 170.737 366.174 170.602C366.422 170.468 366.696 170.368 366.996 170.303C367.298 170.234 367.602 170.18 367.908 170.14C368.307 170.089 368.631 170.05 368.88 170.024C369.131 169.996 369.313 169.949 369.428 169.883C369.545 169.817 369.603 169.703 369.603 169.541V169.506C369.603 169.084 369.488 168.756 369.256 168.522C369.028 168.288 368.681 168.171 368.216 168.171C367.734 168.171 367.355 168.276 367.081 168.487C366.807 168.699 366.615 168.924 366.503 169.164L365.544 168.821C365.716 168.422 365.944 168.111 366.229 167.888C366.518 167.663 366.832 167.506 367.171 167.417C367.514 167.326 367.851 167.28 368.182 167.28C368.393 167.28 368.636 167.306 368.91 167.357C369.186 167.406 369.453 167.507 369.71 167.661C369.97 167.815 370.185 168.048 370.357 168.359C370.528 168.67 370.614 169.087 370.614 169.609V173.942H369.603V173.051H369.552C369.483 173.194 369.369 173.347 369.209 173.509C369.049 173.672 368.837 173.811 368.571 173.925C368.306 174.039 367.982 174.096 367.599 174.096ZM367.754 173.188C368.153 173.188 368.49 173.11 368.764 172.953C369.041 172.796 369.249 172.593 369.389 172.345C369.532 172.097 369.603 171.835 369.603 171.561V170.637C369.56 170.688 369.466 170.735 369.321 170.778C369.178 170.818 369.012 170.854 368.824 170.885C368.638 170.914 368.457 170.939 368.28 170.962C368.106 170.982 367.965 170.999 367.856 171.013C367.594 171.048 367.348 171.103 367.12 171.18C366.894 171.255 366.712 171.367 366.572 171.519C366.435 171.667 366.366 171.87 366.366 172.127C366.366 172.478 366.496 172.743 366.756 172.923C367.019 173.1 367.351 173.188 367.754 173.188ZM372.873 176.408C372.702 176.408 372.549 176.394 372.415 176.365C372.281 176.339 372.188 176.314 372.137 176.288L372.394 175.398C372.639 175.46 372.856 175.483 373.044 175.466C373.233 175.449 373.4 175.365 373.545 175.213C373.694 175.065 373.829 174.824 373.952 174.49L374.14 173.976L371.709 167.366H372.805L374.62 172.606H374.688L376.504 167.366H377.6L374.808 174.901C374.683 175.241 374.527 175.522 374.342 175.744C374.156 175.97 373.941 176.137 373.695 176.245C373.452 176.354 373.178 176.408 372.873 176.408ZM378.933 173.942V167.366H379.91V168.393H379.995C380.132 168.042 380.353 167.77 380.659 167.575C380.964 167.379 381.331 167.28 381.759 167.28C382.193 167.28 382.554 167.379 382.842 167.575C383.133 167.77 383.36 168.042 383.523 168.393H383.591C383.76 168.054 384.012 167.784 384.349 167.584C384.686 167.381 385.09 167.28 385.561 167.28C386.149 167.28 386.63 167.464 387.004 167.832C387.378 168.198 387.565 168.767 387.565 169.541V173.942H386.554V169.541C386.554 169.055 386.421 168.709 386.156 168.5C385.891 168.292 385.578 168.188 385.218 168.188C384.756 168.188 384.398 168.328 384.144 168.607C383.89 168.884 383.763 169.235 383.763 169.661V173.942H382.735V169.438C382.735 169.064 382.614 168.763 382.371 168.535C382.129 168.303 381.816 168.188 381.434 168.188C381.171 168.188 380.926 168.258 380.697 168.398C380.472 168.537 380.289 168.731 380.149 168.98C380.012 169.225 379.944 169.509 379.944 169.832V173.942H378.933ZM392.169 174.079C391.536 174.079 390.989 173.939 390.529 173.659C390.073 173.377 389.72 172.983 389.472 172.478C389.227 171.97 389.104 171.379 389.104 170.705C389.104 170.032 389.227 169.438 389.472 168.924C389.72 168.407 390.066 168.005 390.508 167.717C390.953 167.426 391.473 167.28 392.066 167.28C392.409 167.28 392.747 167.337 393.081 167.451C393.415 167.565 393.719 167.751 393.993 168.008C394.267 168.262 394.485 168.599 394.648 169.018C394.811 169.438 394.892 169.954 394.892 170.568V170.996H389.823V170.123H393.865C393.865 169.752 393.79 169.421 393.642 169.13C393.496 168.838 393.288 168.609 393.017 168.44C392.749 168.272 392.432 168.188 392.066 168.188C391.664 168.188 391.316 168.288 391.022 168.487C390.731 168.684 390.507 168.941 390.35 169.258C390.193 169.575 390.114 169.915 390.114 170.277V170.859C390.114 171.356 390.2 171.777 390.371 172.122C390.545 172.465 390.786 172.726 391.095 172.906C391.403 173.083 391.761 173.171 392.169 173.171C392.435 173.171 392.674 173.134 392.889 173.06C393.105 172.983 393.292 172.869 393.449 172.717C393.606 172.563 393.728 172.372 393.813 172.144L394.789 172.418C394.687 172.749 394.514 173.04 394.271 173.291C394.029 173.539 393.729 173.734 393.372 173.873C393.016 174.01 392.615 174.079 392.169 174.079ZM397.44 169.986V173.942H396.429V167.366H397.405V168.393H397.491C397.645 168.059 397.879 167.791 398.193 167.588C398.507 167.383 398.912 167.28 399.409 167.28C399.854 167.28 400.244 167.371 400.578 167.554C400.912 167.734 401.172 168.008 401.357 168.376C401.543 168.741 401.635 169.204 401.635 169.763V173.942H400.625V169.832C400.625 169.315 400.491 168.913 400.223 168.624C399.954 168.333 399.586 168.188 399.118 168.188C398.795 168.188 398.507 168.258 398.253 168.398C398.002 168.537 397.804 168.741 397.658 169.01C397.512 169.278 397.44 169.603 397.44 169.986ZM406.342 167.366V168.222H402.934V167.366H406.342ZM403.927 165.79H404.937V172.058C404.937 172.344 404.979 172.558 405.062 172.7C405.147 172.84 405.256 172.934 405.387 172.983C405.521 173.029 405.662 173.051 405.811 173.051C405.922 173.051 406.013 173.046 406.085 173.034C406.156 173.02 406.213 173.009 406.256 173L406.462 173.908C406.393 173.933 406.297 173.959 406.175 173.985C406.052 174.013 405.896 174.028 405.708 174.028C405.423 174.028 405.143 173.966 404.869 173.843C404.598 173.721 404.372 173.534 404.192 173.283C404.015 173.031 403.927 172.715 403.927 172.332V165.79Z" fill="#414438" fill-opacity="0.8"></path><path d="M331.015 194.5C330.412 194.5 329.875 194.396 329.403 194.189C328.934 193.982 328.561 193.695 328.284 193.326C328.01 192.955 327.861 192.524 327.837 192.034H328.987C329.012 192.335 329.115 192.596 329.298 192.815C329.481 193.031 329.72 193.198 330.015 193.317C330.31 193.436 330.638 193.495 330.997 193.495C331.399 193.495 331.755 193.425 332.065 193.285C332.376 193.145 332.62 192.95 332.796 192.701C332.973 192.451 333.061 192.162 333.061 191.833C333.061 191.489 332.976 191.186 332.805 190.924C332.635 190.659 332.385 190.452 332.056 190.303C331.728 190.154 331.326 190.079 330.851 190.079H330.102V189.075H330.851C331.222 189.075 331.548 189.008 331.828 188.874C332.111 188.74 332.332 188.551 332.49 188.307C332.652 188.064 332.732 187.778 332.732 187.449C332.732 187.132 332.662 186.857 332.522 186.622C332.382 186.388 332.184 186.205 331.928 186.074C331.676 185.943 331.377 185.878 331.033 185.878C330.711 185.878 330.406 185.937 330.12 186.056C329.837 186.172 329.605 186.341 329.426 186.563C329.246 186.782 329.149 187.047 329.134 187.357H328.038C328.056 186.867 328.203 186.438 328.481 186.07C328.758 185.698 329.12 185.409 329.567 185.202C330.018 184.995 330.513 184.891 331.052 184.891C331.63 184.891 332.126 185.009 332.54 185.243C332.954 185.474 333.273 185.78 333.495 186.161C333.717 186.542 333.828 186.953 333.828 187.394C333.828 187.921 333.69 188.37 333.413 188.741C333.139 189.113 332.766 189.37 332.294 189.513V189.586C332.884 189.683 333.346 189.935 333.678 190.34C334.009 190.741 334.175 191.239 334.175 191.833C334.175 192.341 334.037 192.798 333.76 193.203C333.486 193.605 333.111 193.921 332.636 194.153C332.161 194.384 331.621 194.5 331.015 194.5ZM338.837 194.5C338.149 194.5 337.562 194.313 337.078 193.938C336.594 193.561 336.224 193.014 335.969 192.299C335.713 191.58 335.585 190.713 335.585 189.696C335.585 188.685 335.713 187.822 335.969 187.106C336.227 186.388 336.599 185.84 337.083 185.462C337.57 185.082 338.155 184.891 338.837 184.891C339.519 184.891 340.102 185.082 340.586 185.462C341.073 185.84 341.444 186.388 341.7 187.106C341.959 187.822 342.088 188.685 342.088 189.696C342.088 190.713 341.96 191.58 341.705 192.299C341.449 193.014 341.079 193.561 340.595 193.938C340.111 194.313 339.525 194.5 338.837 194.5ZM338.837 193.495C339.519 193.495 340.048 193.166 340.426 192.509C340.803 191.851 340.992 190.913 340.992 189.696C340.992 188.886 340.905 188.196 340.732 187.627C340.561 187.058 340.315 186.624 339.992 186.325C339.672 186.027 339.287 185.878 338.837 185.878C338.161 185.878 337.632 186.211 337.252 186.878C336.871 187.542 336.681 188.481 336.681 189.696C336.681 190.506 336.766 191.194 336.937 191.76C337.107 192.326 337.352 192.757 337.672 193.052C337.995 193.348 338.383 193.495 338.837 193.495ZM354.507 185.019V194.372H353.411L348.314 187.029H348.223V194.372H347.09V185.019H348.186L353.301 192.381H353.393V185.019H354.507ZM359.22 194.518C358.586 194.518 358.031 194.368 357.553 194.066C357.078 193.765 356.706 193.343 356.438 192.801C356.174 192.259 356.041 191.626 356.041 190.901C356.041 190.171 356.174 189.533 356.438 188.988C356.706 188.443 357.078 188.02 357.553 187.718C358.031 187.417 358.586 187.266 359.22 187.266C359.853 187.266 360.407 187.417 360.882 187.718C361.36 188.02 361.731 188.443 361.996 188.988C362.264 189.533 362.398 190.171 362.398 190.901C362.398 191.626 362.264 192.259 361.996 192.801C361.731 193.343 361.36 193.765 360.882 194.066C360.407 194.368 359.853 194.518 359.22 194.518ZM359.22 193.55C359.701 193.55 360.096 193.427 360.407 193.18C360.717 192.934 360.947 192.609 361.097 192.207C361.246 191.806 361.32 191.37 361.32 190.901C361.32 190.432 361.246 189.996 361.097 189.591C360.947 189.186 360.717 188.858 360.407 188.609C360.096 188.359 359.701 188.234 359.22 188.234C358.739 188.234 358.343 188.359 358.032 188.609C357.722 188.858 357.492 189.186 357.343 189.591C357.193 189.996 357.119 190.432 357.119 190.901C357.119 191.37 357.193 191.806 357.343 192.207C357.492 192.609 357.722 192.934 358.032 193.18C358.343 193.427 358.739 193.55 359.22 193.55ZM369.271 187.357L366.677 194.372H365.581L362.987 187.357H364.156L366.092 192.947H366.165L368.102 187.357H369.271Z" fill="#0D0E14"></path><line x1="74.2618" y1="219.877" x2="74.2618" y2="273.877" stroke="#34D391" stroke-width="1.60752"></line><line x1="82.169" y1="219.877" x2="82.169" y2="273.877" stroke="#34D391" stroke-width="1.60752"></line><line x1="90.0752" y1="219.877" x2="90.0752" y2="273.877" stroke="#34D391" stroke-width="1.60752"></line><line x1="97.9825" y1="219.877" x2="97.9825" y2="273.877" stroke="#34D391" stroke-width="1.60752"></line><line x1="105.889" y1="219.877" x2="105.889" y2="273.877" stroke="black" stroke-opacity="0.05" stroke-width="1.60752"></line><line x1="113.796" y1="219.877" x2="113.796" y2="273.877" stroke="black" stroke-opacity="0.05" stroke-width="1.60752"></line><line x1="121.702" y1="219.877" x2="121.702" y2="273.877" stroke="black" stroke-opacity="0.05" stroke-width="1.60752"></line><line x1="129.609" y1="219.877" x2="129.609" y2="273.877" stroke="black" stroke-opacity="0.05" stroke-width="1.60752"></line><line x1="137.516" y1="219.877" x2="137.516" y2="273.877" stroke="black" stroke-opacity="0.05" stroke-width="1.60752"></line><line x1="145.423" y1="219.877" x2="145.423" y2="273.877" stroke="black" stroke-opacity="0.05" stroke-width="1.60752"></line><line x1="153.329" y1="219.877" x2="153.329" y2="273.877" stroke="black" stroke-opacity="0.05" stroke-width="1.60752"></line><line x1="161.236" y1="219.877" x2="161.236" y2="273.877" stroke="black" stroke-opacity="0.05" stroke-width="1.60752"></line><line x1="169.143" y1="219.877" x2="169.143" y2="273.877" stroke="black" stroke-opacity="0.05" stroke-width="1.60752"></line><line x1="177.05" y1="219.877" x2="177.05" y2="273.877" stroke="black" stroke-opacity="0.05" stroke-width="1.60752"></line><line x1="184.956" y1="219.877" x2="184.956" y2="273.877" stroke="black" stroke-opacity="0.05" stroke-width="1.60752"></line><line x1="192.863" y1="219.877" x2="192.863" y2="273.877" stroke="black" stroke-opacity="0.05" stroke-width="1.60752"></line><line x1="200.77" y1="219.877" x2="200.77" y2="273.877" stroke="black" stroke-opacity="0.05" stroke-width="1.60752"></line><line x1="208.677" y1="219.877" x2="208.677" y2="273.877" stroke="black" stroke-opacity="0.05" stroke-width="1.60752"></line><line x1="216.583" y1="219.877" x2="216.583" y2="273.877" stroke="black" stroke-opacity="0.05" stroke-width="1.60752"></line><line x1="224.49" y1="219.877" x2="224.49" y2="273.877" stroke="black" stroke-opacity="0.05" stroke-width="1.60752"></line><line x1="232.397" y1="219.877" x2="232.397" y2="273.877" stroke="black" stroke-opacity="0.05" stroke-width="1.60752"></line><line x1="240.304" y1="219.877" x2="240.304" y2="273.877" stroke="black" stroke-opacity="0.05" stroke-width="1.60752"></line><line x1="248.21" y1="219.877" x2="248.21" y2="273.877" stroke="black" stroke-opacity="0.05" stroke-width="1.60752"></line><line x1="256.117" y1="219.877" x2="256.117" y2="273.877" stroke="black" stroke-opacity="0.05" stroke-width="1.60752"></line><line x1="264.023" y1="219.877" x2="264.023" y2="273.877" stroke="black" stroke-opacity="0.05" stroke-width="1.60752"></line><line x1="271.931" y1="219.877" x2="271.931" y2="273.877" stroke="black" stroke-opacity="0.05" stroke-width="1.60752"></line><line x1="279.837" y1="219.877" x2="279.837" y2="273.877" stroke="black" stroke-opacity="0.05" stroke-width="1.60752"></line><line x1="287.744" y1="219.877" x2="287.744" y2="273.877" stroke="black" stroke-opacity="0.05" stroke-width="1.60752"></line><line x1="295.65" y1="219.877" x2="295.65" y2="273.877" stroke="black" stroke-opacity="0.05" stroke-width="1.60752"></line><line x1="303.558" y1="219.877" x2="303.558" y2="273.877" stroke="black" stroke-opacity="0.05" stroke-width="1.60752"></line><line x1="311.464" y1="219.877" x2="311.464" y2="273.877" stroke="black" stroke-opacity="0.05" stroke-width="1.60752"></line><line x1="319.371" y1="219.877" x2="319.371" y2="273.877" stroke="black" stroke-opacity="0.05" stroke-width="1.60752"></line><line x1="327.277" y1="219.877" x2="327.277" y2="273.877" stroke="black" stroke-opacity="0.05" stroke-width="1.60752"></line><line x1="335.185" y1="219.877" x2="335.185" y2="273.877" stroke="black" stroke-opacity="0.05" stroke-width="1.60752"></line><line x1="343.091" y1="219.877" x2="343.091" y2="273.877" stroke="black" stroke-opacity="0.05" stroke-width="1.60752"></line><line x1="350.998" y1="219.877" x2="350.998" y2="273.877" stroke="black" stroke-opacity="0.05" stroke-width="1.60752"></line><line x1="358.904" y1="219.877" x2="358.904" y2="273.877" stroke="black" stroke-opacity="0.05" stroke-width="1.60752"></line><line x1="366.812" y1="219.877" x2="366.812" y2="273.877" stroke="black" stroke-opacity="0.05" stroke-width="1.60752"></line><line x1="374.718" y1="219.877" x2="374.718" y2="273.877" stroke="black" stroke-opacity="0.05" stroke-width="1.60752"></line><line x1="382.625" y1="219.877" x2="382.625" y2="273.877" stroke="black" stroke-opacity="0.05" stroke-width="1.60752"></line><line x1="390.531" y1="219.877" x2="390.531" y2="273.877" stroke="black" stroke-opacity="0.05" stroke-width="1.60752"></line><line x1="398.439" y1="219.877" x2="398.439" y2="273.877" stroke="black" stroke-opacity="0.05" stroke-width="1.60752"></line><line x1="406.345" y1="219.877" x2="406.345" y2="273.877" stroke="black" stroke-opacity="0.05" stroke-width="1.60752"></line></svg> 
