<svg xmlns="http://www.w3.org/2000/svg" width="108" height="65" viewBox="0 0 108 65" fill="none">
<g filter="url(#filter0_d_28_2398)">
<path d="M20.4884 34.8146L12.2869 12.8765C12.2359 12.7401 12.3666 12.6058 12.5043 12.6531L34.8258 20.317C34.9755 20.3684 34.9825 20.5775 34.8366 20.6389L24.6236 24.9344C24.5801 24.9527 24.5461 24.9879 24.5293 25.032L20.811 34.8155C20.7545 34.9641 20.5441 34.9635 20.4884 34.8146Z" fill="#0C8CE9" stroke="white" stroke-width="1.72344"/>
<rect x="32" y="29" width="68" height="24" rx="2" fill="#0C8CE9"/>
<path d="M41.233 46V35.8182H44.7926C45.5019 35.8182 46.0869 35.9408 46.5476 36.1861C47.0083 36.428 47.3513 36.7545 47.5767 37.1655C47.8021 37.5732 47.9148 38.0256 47.9148 38.5227C47.9148 38.9602 47.8369 39.3215 47.6811 39.6065C47.5286 39.8916 47.3265 40.117 47.0746 40.2827C46.826 40.4484 46.5559 40.571 46.2642 40.6506V40.75C46.5758 40.7699 46.889 40.8793 47.2038 41.0781C47.5187 41.277 47.7822 41.562 47.9943 41.9332C48.2064 42.3045 48.3125 42.7585 48.3125 43.2955C48.3125 43.8059 48.1965 44.2649 47.9645 44.6726C47.7325 45.0803 47.3662 45.4034 46.8658 45.642C46.3653 45.8807 45.714 46 44.9119 46H41.233ZM42.4659 44.9062H44.9119C45.7173 44.9062 46.2891 44.7505 46.6271 44.4389C46.9685 44.1241 47.1392 43.7429 47.1392 43.2955C47.1392 42.9508 47.0514 42.6326 46.8757 42.3409C46.7 42.0459 46.4498 41.8106 46.125 41.6349C45.8002 41.456 45.4157 41.3665 44.9716 41.3665H42.4659V44.9062ZM42.4659 40.2926H44.7528C45.1241 40.2926 45.4588 40.2197 45.7571 40.0739C46.0587 39.928 46.2973 39.7225 46.473 39.4574C46.652 39.1922 46.7415 38.8807 46.7415 38.5227C46.7415 38.0753 46.5857 37.6958 46.2741 37.3842C45.9626 37.0694 45.4688 36.9119 44.7926 36.9119H42.4659V40.2926ZM50.1793 46V38.3636H51.3129V39.517H51.3924C51.5316 39.1392 51.7835 38.8326 52.1481 38.5973C52.5127 38.362 52.9237 38.2443 53.381 38.2443C53.4672 38.2443 53.5749 38.246 53.7042 38.2493C53.8335 38.2526 53.9312 38.2576 53.9975 38.2642V39.4574C53.9577 39.4474 53.8666 39.4325 53.7241 39.4126C53.5849 39.3894 53.4374 39.3778 53.2816 39.3778C52.9104 39.3778 52.579 39.4557 52.2873 39.6115C51.9989 39.764 51.7702 39.9761 51.6012 40.2479C51.4355 40.5163 51.3526 40.8229 51.3526 41.1676V46H50.1793ZM58.3576 46.1591C57.6218 46.1591 56.9871 45.9967 56.4535 45.6719C55.9232 45.3438 55.5138 44.8864 55.2255 44.2997C54.9405 43.7098 54.7979 43.0237 54.7979 42.2415C54.7979 41.4593 54.9405 40.7699 55.2255 40.1733C55.5138 39.5734 55.9149 39.1061 56.4286 38.7713C56.9457 38.4332 57.5489 38.2642 58.2383 38.2642C58.636 38.2642 59.0288 38.3305 59.4165 38.4631C59.8043 38.5956 60.1573 38.8111 60.4755 39.1094C60.7937 39.4044 61.0472 39.7955 61.2362 40.2827C61.4251 40.7699 61.5195 41.3698 61.5195 42.0824V42.5795H55.6332V41.5653H60.3263C60.3263 41.1345 60.2402 40.75 60.0678 40.4119C59.8988 40.0739 59.6568 39.8071 59.342 39.6115C59.0304 39.416 58.6625 39.3182 58.2383 39.3182C57.771 39.3182 57.3666 39.4342 57.0252 39.6662C56.6871 39.8949 56.427 40.1932 56.2447 40.5611C56.0624 40.929 55.9712 41.3234 55.9712 41.7443V42.4205C55.9712 42.9972 56.0707 43.486 56.2695 43.8871C56.4717 44.2848 56.7518 44.5881 57.1097 44.7969C57.4677 45.0024 57.8836 45.1051 58.3576 45.1051C58.6658 45.1051 58.9442 45.062 59.1928 44.9759C59.4447 44.8864 59.6618 44.7538 59.8441 44.5781C60.0264 44.3991 60.1673 44.1771 60.2667 43.9119L61.4002 44.2301C61.2809 44.6146 61.0804 44.9527 60.7987 45.2443C60.5169 45.5327 60.1689 45.758 59.7546 45.9205C59.3403 46.0795 58.8746 46.1591 58.3576 46.1591ZM66.6254 38.3636V39.358H62.668V38.3636H66.6254ZM63.8214 36.5341H64.9947V43.8125C64.9947 44.1439 65.0427 44.3925 65.1388 44.5582C65.2383 44.7206 65.3642 44.83 65.5167 44.8864C65.6725 44.9394 65.8365 44.9659 66.0089 44.9659C66.1381 44.9659 66.2442 44.9593 66.3271 44.946C66.4099 44.9295 66.4762 44.9162 66.5259 44.9062L66.7646 45.9602C66.685 45.9901 66.574 46.0199 66.4315 46.0497C66.2889 46.0829 66.1083 46.0994 65.8896 46.0994C65.5581 46.0994 65.2333 46.0282 64.9151 45.8857C64.6003 45.7431 64.3384 45.526 64.1296 45.2344C63.9241 44.9427 63.8214 44.5748 63.8214 44.1307V36.5341ZM71.7113 38.3636V39.358H67.7539V38.3636H71.7113ZM68.9073 36.5341H70.0806V43.8125C70.0806 44.1439 70.1287 44.3925 70.2248 44.5582C70.3242 44.7206 70.4502 44.83 70.6026 44.8864C70.7584 44.9394 70.9225 44.9659 71.0948 44.9659C71.2241 44.9659 71.3301 44.9593 71.413 44.946C71.4959 44.9295 71.5621 44.9162 71.6119 44.9062L71.8505 45.9602C71.771 45.9901 71.6599 46.0199 71.5174 46.0497C71.3749 46.0829 71.1942 46.0994 70.9755 46.0994C70.6441 46.0994 70.3192 46.0282 70.0011 45.8857C69.6862 45.7431 69.4244 45.526 69.2156 45.2344C69.0101 44.9427 68.9073 44.5748 68.9073 44.1307V36.5341ZM74.8136 35.8182V46H73.6403V35.8182H74.8136ZM80.1642 46.1591C79.4284 46.1591 78.7937 45.9967 78.2601 45.6719C77.7298 45.3438 77.3205 44.8864 77.0321 44.2997C76.7471 43.7098 76.6046 43.0237 76.6046 42.2415C76.6046 41.4593 76.7471 40.7699 77.0321 40.1733C77.3205 39.5734 77.7215 39.1061 78.2353 38.7713C78.7523 38.4332 79.3555 38.2642 80.0449 38.2642C80.4426 38.2642 80.8354 38.3305 81.2232 38.4631C81.611 38.5956 81.964 38.8111 82.2821 39.1094C82.6003 39.4044 82.8539 39.7955 83.0428 40.2827C83.2317 40.7699 83.3262 41.3698 83.3262 42.0824V42.5795H77.4398V41.5653H82.133C82.133 41.1345 82.0468 40.75 81.8745 40.4119C81.7054 40.0739 81.4635 39.8071 81.1486 39.6115C80.8371 39.416 80.4692 39.3182 80.0449 39.3182C79.5776 39.3182 79.1732 39.4342 78.8319 39.6662C78.4938 39.8949 78.2336 40.1932 78.0513 40.5611C77.869 40.929 77.7779 41.3234 77.7779 41.7443V42.4205C77.7779 42.9972 77.8773 43.486 78.0762 43.8871C78.2783 44.2848 78.5584 44.5881 78.9164 44.7969C79.2743 45.0024 79.6903 45.1051 80.1642 45.1051C80.4725 45.1051 80.7509 45.062 80.9995 44.9759C81.2514 44.8864 81.4685 44.7538 81.6507 44.5781C81.833 44.3991 81.9739 44.1771 82.0733 43.9119L83.2069 44.2301C83.0875 44.6146 82.887 44.9527 82.6053 45.2443C82.3236 45.5327 81.9756 45.758 81.5613 45.9205C81.147 46.0795 80.6813 46.1591 80.1642 46.1591ZM85.6342 48.8636C85.4354 48.8636 85.258 48.8471 85.1023 48.8139C84.9465 48.7841 84.8388 48.7543 84.7791 48.7244L85.0774 47.6903C85.3625 47.7633 85.6143 47.7898 85.8331 47.7699C86.0518 47.75 86.2457 47.6522 86.4148 47.4766C86.5871 47.3042 86.7446 47.0241 86.8871 46.6364L87.1058 46.0398L84.282 38.3636H85.5547L87.6626 44.4489H87.7422L89.8501 38.3636H91.1229L87.8814 47.1136C87.7356 47.508 87.5549 47.8345 87.3395 48.093C87.1241 48.3549 86.8738 48.5488 86.5888 48.6747C86.3071 48.8007 85.9889 48.8636 85.6342 48.8636Z" fill="white"/>
</g>
<defs>
<filter id="filter0_d_28_2398" x="-8" y="-4" width="116" height="69" filterUnits="userSpaceOnUse" color-interpolation-filters="sRGB">
<feFlood flood-opacity="0" result="BackgroundImageFix"/>
<feColorMatrix in="SourceAlpha" type="matrix" values="0 0 0 0 0 0 0 0 0 0 0 0 0 0 0 0 0 0 127 0" result="hardAlpha"/>
<feOffset dy="4"/>
<feGaussianBlur stdDeviation="4"/>
<feComposite in2="hardAlpha" operator="out"/>
<feColorMatrix type="matrix" values="0 0 0 0 0.175146 0 0 0 0 0.175146 0 0 0 0 0.175146 0 0 0 0.2 0"/>
<feBlend mode="normal" in2="BackgroundImageFix" result="effect1_dropShadow_28_2398"/>
<feBlend mode="normal" in="SourceGraphic" in2="effect1_dropShadow_28_2398" result="shape"/>
</filter>
</defs>
</svg>