<svg xmlns="http://www.w3.org/2000/svg" width="87" height="57" viewBox="0 0 87 57" fill="none">
<g filter="url(#filter0_d_28_2411)">
<rect x="32.9995" y="20.0017" width="46" height="24" rx="2" fill="#198F51"/>
<path d="M50.4256 30.0017H49.1927C49.1198 29.6471 48.9922 29.3355 48.8099 29.067C48.6309 28.7986 48.4122 28.5732 48.1536 28.3909C47.8984 28.2053 47.615 28.0661 47.3035 27.9733C46.9919 27.8805 46.6671 27.8341 46.3291 27.8341C45.7126 27.8341 45.1541 27.9899 44.6536 28.3014C44.1565 28.613 43.7604 29.072 43.4654 29.6786C43.1738 30.2851 43.0279 31.0292 43.0279 31.9108C43.0279 32.7924 43.1738 33.5365 43.4654 34.143C43.7604 34.7496 44.1565 35.2086 44.6536 35.5202C45.1541 35.8317 45.7126 35.9875 46.3291 35.9875C46.6671 35.9875 46.9919 35.9411 47.3035 35.8483C47.615 35.7555 47.8984 35.6179 48.1536 35.4357C48.4122 35.2501 48.6309 35.023 48.8099 34.7545C48.9922 34.4828 49.1198 34.1712 49.1927 33.8199H50.4256C50.3328 34.3403 50.1638 34.8059 49.9185 35.2169C49.6733 35.6279 49.3684 35.9776 49.0038 36.2659C48.6392 36.551 48.2299 36.768 47.7758 36.9172C47.325 37.0663 46.8428 37.1409 46.3291 37.1409C45.4607 37.1409 44.6884 36.9288 44.0123 36.5045C43.3362 36.0803 42.8042 35.4771 42.4164 34.6949C42.0286 33.9127 41.8347 32.9847 41.8347 31.9108C41.8347 30.8369 42.0286 29.9089 42.4164 29.1267C42.8042 28.3445 43.3362 27.7413 44.0123 27.317C44.6884 26.8928 45.4607 26.6807 46.3291 26.6807C46.8428 26.6807 47.325 26.7553 47.7758 26.9044C48.2299 27.0536 48.6392 27.2723 49.0038 27.5607C49.3684 27.8457 49.6733 28.1937 49.9185 28.6047C50.1638 29.0124 50.3328 29.478 50.4256 30.0017ZM53.0146 39.8653C52.8157 39.8653 52.6384 39.8488 52.4826 39.8156C52.3269 39.7858 52.2191 39.756 52.1595 39.7261L52.4578 38.692C52.7428 38.765 52.9947 38.7915 53.2135 38.7716C53.4322 38.7517 53.6261 38.6539 53.7951 38.4783C53.9675 38.3059 54.1249 38.0259 54.2674 37.6381L54.4862 37.0415L51.6623 29.3653H52.9351L55.043 35.4506H55.1226L57.2305 29.3653H58.5032L55.2618 38.1153C55.1159 38.5098 54.9353 38.8362 54.7199 39.0947C54.5044 39.3566 54.2542 39.5505 53.9691 39.6764C53.6874 39.8024 53.3692 39.8653 53.0146 39.8653ZM60.0519 37.0017V29.3653H61.1854V30.5188H61.265C61.4042 30.1409 61.6561 29.8343 62.0206 29.599C62.3852 29.3637 62.7962 29.246 63.2536 29.246C63.3398 29.246 63.4475 29.2477 63.5767 29.251C63.706 29.2543 63.8038 29.2593 63.8701 29.2659V30.4591C63.8303 30.4492 63.7392 30.4342 63.5966 30.4144C63.4574 30.3912 63.3099 30.3795 63.1542 30.3795C62.783 30.3795 62.4515 30.4574 62.1598 30.6132C61.8715 30.7657 61.6428 30.9778 61.4738 31.2496C61.308 31.518 61.2252 31.8246 61.2252 32.1693V37.0017H60.0519ZM65.2609 37.0017V29.3653H66.4342V37.0017H65.2609ZM65.8575 28.0926C65.6288 28.0926 65.4316 28.0147 65.2658 27.859C65.1034 27.7032 65.0222 27.5159 65.0222 27.2972C65.0222 27.0784 65.1034 26.8912 65.2658 26.7354C65.4316 26.5796 65.6288 26.5017 65.8575 26.5017C66.0862 26.5017 66.2817 26.5796 66.4441 26.7354C66.6098 26.8912 66.6927 27.0784 66.6927 27.2972C66.6927 27.5159 66.6098 27.7032 66.4441 27.859C66.2817 28.0147 66.0862 28.0926 65.8575 28.0926ZM69.7564 26.8199V37.0017H68.5831V26.8199H69.7564Z" fill="white"/>
<path d="M24.2767 28.1851L9.88851 9.70453C9.79906 9.58963 9.88359 9.42245 10.0291 9.42638L33.6211 10.0626C33.7793 10.0669 33.8486 10.2643 33.7277 10.3665L25.2671 17.5202C25.2311 17.5507 25.2092 17.5946 25.2064 17.6416L24.5847 28.0894C24.5752 28.2481 24.3743 28.3105 24.2767 28.1851Z" fill="#198F51" stroke="white" stroke-width="1.72344"/>
</g>
<defs>
<filter id="filter0_d_28_2411" x="0.988281" y="4.56445" width="86.0112" height="51.4373" filterUnits="userSpaceOnUse" color-interpolation-filters="sRGB">
<feFlood flood-opacity="0" result="BackgroundImageFix"/>
<feColorMatrix in="SourceAlpha" type="matrix" values="0 0 0 0 0 0 0 0 0 0 0 0 0 0 0 0 0 0 127 0" result="hardAlpha"/>
<feOffset dy="4"/>
<feGaussianBlur stdDeviation="4"/>
<feComposite in2="hardAlpha" operator="out"/>
<feColorMatrix type="matrix" values="0 0 0 0 0.175146 0 0 0 0 0.175146 0 0 0 0 0.175146 0 0 0 0.2 0"/>
<feBlend mode="normal" in2="BackgroundImageFix" result="effect1_dropShadow_28_2411"/>
<feBlend mode="normal" in="SourceGraphic" in2="effect1_dropShadow_28_2411" result="shape"/>
</filter>
</defs>
</svg>