<svg xmlns="http://www.w3.org/2000/svg" width="84" height="54" viewBox="0 0 84 54" fill="none">
<g filter="url(#filter0_d_28_2408)">
<rect x="29.0001" y="4.0022" width="47" height="24" rx="2" fill="#E03E1A"/>
<path d="M38.2331 21.0022V10.8204H39.466V19.9084H44.199V21.0022H38.2331ZM45.949 21.0022V13.3658H47.1223V21.0022H45.949ZM46.5456 12.0931C46.3169 12.0931 46.1197 12.0152 45.954 11.8594C45.7916 11.7037 45.7103 11.5164 45.7103 11.2977C45.7103 11.0789 45.7916 10.8916 45.954 10.7359C46.1197 10.5801 46.3169 10.5022 46.5456 10.5022C46.7743 10.5022 46.9698 10.5801 47.1322 10.7359C47.2979 10.8916 47.3808 11.0789 47.3808 11.2977C47.3808 11.5164 47.2979 11.7037 47.1322 11.8594C46.9698 12.0152 46.7743 12.0931 46.5456 12.0931ZM50.4445 10.8204V21.0022H49.2713V10.8204H50.4445ZM52.5935 21.0022V13.3658H53.7668V21.0022H52.5935ZM53.1901 12.0931C52.9614 12.0931 52.7642 12.0152 52.5985 11.8594C52.4361 11.7037 52.3549 11.5164 52.3549 11.2977C52.3549 11.0789 52.4361 10.8916 52.5985 10.7359C52.7642 10.5801 52.9614 10.5022 53.1901 10.5022C53.4188 10.5022 53.6144 10.5801 53.7768 10.7359C53.9425 10.8916 54.0253 11.0789 54.0253 11.2977C54.0253 11.5164 53.9425 11.7037 53.7768 11.8594C53.6144 12.0152 53.4188 12.0931 53.1901 12.0931ZM59.2368 13.3658V14.3602H55.2794V13.3658H59.2368ZM56.4328 11.5363H57.6061V18.8147C57.6061 19.1461 57.6542 19.3947 57.7503 19.5604C57.8497 19.7228 57.9757 19.8322 58.1281 19.8886C58.2839 19.9416 58.448 19.9681 58.6203 19.9681C58.7496 19.9681 58.8557 19.9615 58.9385 19.9482C59.0214 19.9316 59.0877 19.9184 59.1374 19.9084L59.376 20.9624C59.2965 20.9923 59.1854 21.0221 59.0429 21.0519C58.9004 21.0851 58.7198 21.1016 58.501 21.1016C58.1696 21.1016 57.8448 21.0304 57.5266 20.8879C57.2117 20.7453 56.9499 20.5282 56.7411 20.2366C56.5356 19.9449 56.4328 19.577 56.4328 19.1329V11.5363ZM63.2489 21.1812C62.765 21.1812 62.3258 21.09 61.9314 20.9077C61.537 20.7221 61.2238 20.4553 60.9918 20.1073C60.7598 19.756 60.6438 19.3317 60.6438 18.8346C60.6438 18.3971 60.7299 18.0424 60.9023 17.7707C61.0746 17.4956 61.305 17.2801 61.5933 17.1244C61.8817 16.9686 62.1999 16.8526 62.5479 16.7763C62.8992 16.6968 63.2522 16.6338 63.6068 16.5874C64.0708 16.5278 64.447 16.483 64.7354 16.4532C65.0271 16.42 65.2392 16.3654 65.3717 16.2891C65.5076 16.2129 65.5756 16.0803 65.5756 15.8914V15.8516C65.5756 15.3611 65.4414 14.9799 65.1729 14.7082C64.9077 14.4364 64.505 14.3005 63.9648 14.3005C63.4047 14.3005 62.9655 14.4231 62.6473 14.6684C62.3291 14.9137 62.1054 15.1755 61.9762 15.4539L60.8625 15.0562C61.0614 14.5922 61.3265 14.2309 61.658 13.9724C61.9927 13.7105 62.3573 13.5282 62.7517 13.4255C63.1494 13.3194 63.5405 13.2664 63.925 13.2664C64.1703 13.2664 64.452 13.2962 64.7702 13.3559C65.0917 13.4122 65.4016 13.5299 65.6999 13.7089C66.0015 13.8879 66.2517 14.158 66.4506 14.5192C66.6494 14.8805 66.7489 15.3644 66.7489 15.9709V21.0022H65.5756V19.9681H65.5159C65.4364 20.1338 65.3038 20.3111 65.1182 20.5001C64.9326 20.689 64.6857 20.8497 64.3774 20.9823C64.0692 21.1149 63.693 21.1812 63.2489 21.1812ZM63.4279 20.1272C63.8919 20.1272 64.283 20.0361 64.6012 19.8538C64.9226 19.6715 65.1646 19.4361 65.327 19.1478C65.4927 18.8594 65.5756 18.5562 65.5756 18.238V17.1641C65.5259 17.2238 65.4165 17.2785 65.2475 17.3282C65.0817 17.3746 64.8895 17.416 64.6708 17.4525C64.4553 17.4856 64.2449 17.5155 64.0394 17.542C63.8372 17.5652 63.6731 17.5851 63.5472 17.6016C63.2423 17.6414 62.9572 17.706 62.6921 17.7955C62.4302 17.8817 62.2181 18.0126 62.0557 18.1883C61.8966 18.3606 61.8171 18.5959 61.8171 18.8942C61.8171 19.3019 61.9679 19.6102 62.2695 19.819C62.5744 20.0245 62.9605 20.1272 63.4279 20.1272Z" fill="white"/>
<path d="M32.6227 35.7067L9.72012 40.6079C9.57773 40.6384 9.46406 40.4895 9.531 40.3602L20.3804 19.4013C20.4531 19.2607 20.661 19.2843 20.7003 19.4377L23.4543 30.1695C23.466 30.2152 23.4959 30.254 23.5371 30.2771L32.6708 35.3877C32.8095 35.4654 32.7781 35.6734 32.6227 35.7067Z" fill="#E03E1A" stroke="white" stroke-width="1.72344"/>
</g>
<defs>
<filter id="filter0_d_28_2408" x="0.647461" y="0.00219727" width="83.3527" height="53.4724" filterUnits="userSpaceOnUse" color-interpolation-filters="sRGB">
<feFlood flood-opacity="0" result="BackgroundImageFix"/>
<feColorMatrix in="SourceAlpha" type="matrix" values="0 0 0 0 0 0 0 0 0 0 0 0 0 0 0 0 0 0 127 0" result="hardAlpha"/>
<feOffset dy="4"/>
<feGaussianBlur stdDeviation="4"/>
<feComposite in2="hardAlpha" operator="out"/>
<feColorMatrix type="matrix" values="0 0 0 0 0.175146 0 0 0 0 0.175146 0 0 0 0 0.175146 0 0 0 0.2 0"/>
<feBlend mode="normal" in2="BackgroundImageFix" result="effect1_dropShadow_28_2408"/>
<feBlend mode="normal" in="SourceGraphic" in2="effect1_dropShadow_28_2408" result="shape"/>
</filter>
</defs>
</svg>