<svg width="144" height="29" viewBox="0 0 144 29" fill="none" xmlns="http://www.w3.org/2000/svg">
<rect x="0.705882" y="5.43391" width="22.5882" height="18.1324" rx="3.52941" fill="white"/>
<rect x="0.705882" y="5.43391" width="22.5882" height="18.1324" rx="3.52941" stroke="#CED2D6" stroke-width="1.41176"/>
<rect x="1.41187" y="22.8604" width="16.7206" height="12.4853" rx="2.82353" transform="rotate(-90 1.41187 22.8604)" fill="#1D1D1F"/>
<path d="M53.048 17.596H49.736V23.5H45.848V5.74H53.048C56.672 5.74 59.096 8.116 59.096 11.668C59.096 15.22 56.672 17.596 53.048 17.596ZM52.184 9.196H49.736V14.14H52.184C54.056 14.14 54.992 13.324 54.992 11.668C54.992 10.012 54.056 9.196 52.184 9.196ZM66.4538 23.812C62.8297 23.812 60.2377 21.172 60.2377 17.476C60.2377 13.732 62.7577 11.116 66.3817 11.116C70.1498 11.116 72.5018 13.588 72.5018 17.5V18.436L63.7897 18.484C64.0057 20.068 64.8937 20.812 66.5257 20.812C67.9177 20.812 68.9018 20.308 69.1658 19.444H72.5498C72.1178 22.108 69.7418 23.812 66.4538 23.812ZM66.4058 14.116C64.9417 14.116 64.1257 14.764 63.8377 16.204H68.8298C68.8298 14.932 67.8938 14.116 66.4058 14.116ZM77.5291 23.5H73.3291L77.3611 17.692L73.3291 11.5H77.6011L79.8091 15.148L81.8731 11.5H86.0011L82.0411 17.62L85.8571 23.5H81.6091L79.5451 20.044L77.5291 23.5ZM89.8535 9.628C88.6775 9.628 87.7415 8.692 87.7415 7.516C87.7415 6.34 88.6775 5.428 89.8535 5.428C91.0055 5.428 91.9415 6.34 91.9415 7.516C91.9415 8.692 91.0055 9.628 89.8535 9.628ZM88.0295 23.5V11.5H91.7255V23.5H88.0295ZM93.7702 11.5H95.4262V10.54C95.4262 6.964 97.2022 5.404 100.01 5.404C100.514 5.404 101.09 5.452 101.666 5.548V8.716H100.634C99.3622 8.716 99.1222 9.508 99.1222 10.54V11.5H103.538V5.404H107.234V23.5H103.538V14.572H99.1222V23.5H95.4262V14.572H93.7702V11.5ZM109.767 17.476C109.767 13.684 112.551 11.14 116.391 11.14C120.207 11.14 122.991 13.684 122.991 17.476C122.991 21.268 120.207 23.788 116.391 23.788C112.551 23.788 109.767 21.268 109.767 17.476ZM113.487 17.452C113.487 19.276 114.663 20.476 116.391 20.476C118.095 20.476 119.271 19.276 119.271 17.452C119.271 15.652 118.095 14.452 116.391 14.452C114.663 14.452 113.487 15.652 113.487 17.452ZM127.637 23.5L123.773 11.5H127.661L128.765 15.412C129.053 16.444 129.317 17.62 129.509 18.82C129.725 17.548 129.845 17.092 130.373 15.412L131.597 11.5H135.389L136.517 15.412C136.637 15.82 137.213 18.052 137.333 18.82C137.477 17.956 138.053 15.844 138.173 15.412L139.325 11.5H143.237L139.037 23.5H135.605L134.453 19.684C133.853 17.716 133.541 16.3 133.469 15.796C133.373 16.3 133.157 17.236 132.389 19.756L131.237 23.5H127.637Z" fill="#1A1D1F"/>
</svg>
